<?xml version="1.0" encoding="UTF-8" standalone="no"?>
<!-- Created with Inkscape (http://www.inkscape.org/) -->

<svg
   width="224.32515mm"
   height="201.46217mm"
   viewBox="0 0 224.32515 201.46218"
   version="1.1"
   id="svg5"
   inkscape:version="1.3 (0e150ed6c4, 2023-07-21)"
   sodipodi:docname="terminology.svg"
   inkscape:export-filename="terminology.png"
   inkscape:export-xdpi="115.94598"
   inkscape:export-ydpi="115.94598"
   xmlns:inkscape="http://www.inkscape.org/namespaces/inkscape"
   xmlns:sodipodi="http://sodipodi.sourceforge.net/DTD/sodipodi-0.dtd"
   xmlns:xlink="http://www.w3.org/1999/xlink"
   xmlns="http://www.w3.org/2000/svg"
   xmlns:svg="http://www.w3.org/2000/svg">
  <sodipodi:namedview
     id="namedview7"
     pagecolor="#ffffff"
     bordercolor="#666666"
     borderopacity="1.0"
     inkscape:pageshadow="2"
     inkscape:pageopacity="0.0"
     inkscape:pagecheckerboard="0"
     inkscape:document-units="mm"
     showgrid="false"
     showguides="true"
     inkscape:guide-bbox="true"
     inkscape:zoom="1.0469406"
     inkscape:cx="379.67769"
     inkscape:cy="346.24695"
     inkscape:window-width="1920"
     inkscape:window-height="1137"
     inkscape:window-x="-8"
     inkscape:window-y="-8"
     inkscape:window-maximized="1"
     inkscape:current-layer="layer1"
     fit-margin-top="0"
     fit-margin-left="0"
     fit-margin-right="0"
     fit-margin-bottom="0"
     inkscape:showpageshadow="2"
     inkscape:deskcolor="#d1d1d1" />
  <defs
     id="defs2">
    <rect
       x="56.733847"
       y="334.99986"
       width="224.23378"
       height="83.074562"
       id="rect87" />
    <marker
       style="overflow:visible"
       id="Arrow1Mstart"
       refX="0"
       refY="0"
       orient="auto"
       inkscape:stockid="Arrow1Mstart"
       inkscape:isstock="true">
      <path
         transform="matrix(0.4,0,0,0.4,4,0)"
         style="fill:context-stroke;fill-rule:evenodd;stroke:context-stroke;stroke-width:1pt"
         d="M 0,0 5,-5 -12.5,0 5,5 Z"
         id="path13627" />
    </marker>
    <marker
       style="overflow:visible"
       id="marker13891"
       refX="0"
       refY="0"
       orient="auto"
       inkscape:stockid="Arrow1Mend"
       inkscape:isstock="true">
      <path
         transform="matrix(-0.4,0,0,-0.4,-4,0)"
         style="fill:context-stroke;fill-rule:evenodd;stroke:context-stroke;stroke-width:1pt"
         d="M 0,0 5,-5 -12.5,0 5,5 Z"
         id="path13889" />
    </marker>
    <marker
       style="overflow:visible"
       id="Arrow1Mend"
       refX="0"
       refY="0"
       orient="auto"
       inkscape:stockid="Arrow1Mend"
       inkscape:isstock="true"
       viewBox="0 0 8.886927 5.078244"
       markerWidth="8.8869267"
       markerHeight="5.0782442"
       preserveAspectRatio="xMidYMid">
      <path
         transform="matrix(-0.4,0,0,-0.4,-4,0)"
         style="fill:context-stroke;fill-rule:evenodd;stroke:context-stroke;stroke-width:1pt"
         d="M 0,0 5,-5 -12.5,0 5,5 Z"
         id="path13630" />
    </marker>
    <linearGradient
       id="a"
       x1="9"
       y1="16.969999"
       x2="9"
       y2="1.03"
       gradientUnits="userSpaceOnUse"
       gradientTransform="matrix(1.303279,0,0,1.303279,21.200137,55.43066)">
      <stop
         offset="0"
         stop-color="#0078d4"
         id="stop868" />
      <stop
         offset=".16"
         stop-color="#1380da"
         id="stop870" />
      <stop
         offset=".53"
         stop-color="#3c91e5"
         id="stop872" />
      <stop
         offset=".82"
         stop-color="#559cec"
         id="stop874" />
      <stop
         offset="1"
         stop-color="#5ea0ef"
         id="stop876" />
    </linearGradient>
    <style
       id="style894">.cls-1{fill:#65c179;}.cls-2{fill:#f5f1e3;}</style>
    <linearGradient
       id="a-3"
       gradientUnits="userSpaceOnUse"
       x1="198.099"
       y1="1683.0726"
       x2="942.23438"
       y2="394.26071"
       gradientTransform="matrix(0.00996278,0,0,-0.00996278,83.908322,294.00906)">
      <stop
         offset="0"
         stop-color="#5a62c3"
         id="stop26" />
      <stop
         offset=".5"
         stop-color="#4d55bd"
         id="stop28" />
      <stop
         offset="1"
         stop-color="#3940ab"
         id="stop30" />
    </linearGradient>
    <style
       id="style7187">.cls-1{fill:#65c179;}.cls-2{fill:#f5f1e3;}</style>
    <linearGradient
       inkscape:collect="always"
       xlink:href="#a"
       id="linearGradient21"
       gradientUnits="userSpaceOnUse"
       gradientTransform="matrix(1.303279,0,0,1.303279,179.34303,-79.688176)"
       x1="9"
       y1="16.969999"
       x2="9"
       y2="1.03" />
    <linearGradient
       inkscape:collect="always"
       xlink:href="#a-3"
       id="linearGradient55"
       gradientUnits="userSpaceOnUse"
       gradientTransform="matrix(0.00996278,0,0,-0.00996278,179.15837,114.09228)"
       x1="198.099"
       y1="1683.0726"
       x2="942.23438"
       y2="394.26071" />
    <rect
       x="56.733847"
       y="334.99986"
       width="224.23378"
       height="83.074562"
       id="rect88" />
    <rect
       x="56.733847"
       y="334.99986"
       width="224.23378"
       height="83.074562"
       id="rect89" />
    <rect
       x="56.733847"
       y="334.99986"
       width="224.23378"
       height="83.074562"
       id="rect92" />
    <rect
       x="56.733847"
       y="334.99986"
       width="224.23378"
       height="83.074562"
       id="rect93" />
    <rect
       x="56.733847"
       y="334.99986"
       width="224.23378"
       height="83.074562"
       id="rect94" />
    <rect
       x="56.733847"
       y="334.99986"
       width="224.23378"
       height="83.074562"
       id="rect95" />
    <rect
       x="56.733847"
       y="334.99986"
       width="224.23378"
       height="83.074562"
       id="rect96" />
    <rect
       x="56.733847"
       y="334.99986"
       width="224.23378"
       height="83.074562"
       id="rect118" />
    <rect
       x="56.733847"
       y="334.99986"
       width="224.23378"
       height="83.074562"
       id="rect119" />
    <rect
       x="56.733847"
       y="334.99986"
       width="224.23378"
       height="83.074562"
       id="rect120" />
    <rect
       x="56.733847"
       y="334.99986"
       width="224.23378"
       height="83.074562"
       id="rect121" />
    <rect
       x="56.733847"
       y="334.99986"
       width="224.23378"
       height="83.074562"
       id="rect122" />
    <rect
       x="56.733847"
       y="334.99986"
       width="224.23378"
       height="83.074562"
       id="rect123" />
    <rect
       x="56.733847"
       y="334.99986"
       width="224.23378"
       height="83.074562"
       id="rect124" />
  </defs>
  <g
     inkscape:label="Ebene 1"
     inkscape:groupmode="layer"
     id="layer1"
     transform="translate(-17.772797,82.647127)">
    <path
       id="text123"
       style="font-style:normal;font-weight:normal;font-size:32px;line-height:125%;font-family:sans-serif;letter-spacing:0px;word-spacing:0px;white-space:pre;shape-inside:url(#rect124);display:inline;fill:#ecf2e6;fill-opacity:1;stroke:none;stroke-width:0;stroke-linecap:butt;stroke-linejoin:miter;stroke-dasharray:none;stroke-opacity:1"
       d="m 130.20632,53.574221 c -0.61135,-0.01221 -0.99659,0.579654 -1.06144,1.13031 -0.11794,0.953309 -0.0593,1.920784 -0.10452,2.879757 -0.0298,1.768712 -0.064,3.538276 -0.053,5.307037 0.0416,0.590752 0.1165,1.335682 0.68869,1.656296 0.49667,0.186777 1.20976,-0.03292 1.38966,-0.565179 0.12183,-0.434066 -0.24286,-0.806941 -0.31292,-1.22476 -0.14331,-0.720125 -0.0317,-1.464685 -0.0529,-2.19474 0.0248,-1.963731 0.14431,-3.943604 0.25196,-5.904039 0.0269,-0.433832 -0.1033,-1.036102 -0.62465,-1.079278 -0.0405,-0.0097 -0.0798,-0.01179 -0.12086,-0.0054 z m -5.22112,1.2405 c -0.57265,-0.01593 -0.93624,0.522637 -1.00756,1.03727 -0.14004,0.821702 -0.0604,1.662678 -0.0341,2.491402 -0.74392,0.122862 -1.47421,0.344768 -2.23222,0.357259 -0.55419,0.01698 -0.89468,0.655645 -0.66286,1.139777 0.23393,0.553988 0.93323,0.644834 1.45117,0.484992 0.48747,-0.09035 0.97055,-0.202891 1.45854,-0.290435 0.023,1.327334 0.0458,2.667583 0.297,3.974598 0.0609,0.458709 0.4133,0.967639 0.93227,0.882347 0.54155,-0.05648 1.14498,-0.615012 0.87729,-1.187578 -0.373,-1.048875 -0.31375,-2.182526 -0.36424,-3.278329 0.0494,-0.21357 -0.11301,-0.606425 0.0801,-0.701898 0.8127,-0.149339 1.62346,-0.256448 2.40676,-0.436134 0.58072,-0.109207 1.00071,-0.765029 0.74661,-1.32338 -0.19309,-0.46849 -0.78903,-0.921033 -1.28073,-0.607167 -0.19812,0.122038 -0.25134,0.393706 -0.52892,0.363968 -0.49469,0.10591 -0.98755,0.220605 -1.48401,0.318097 -0.0277,-0.748633 -0.0473,-1.55274 0.10529,-2.322542 0.11145,-0.430183 -0.19901,-0.923113 -0.66829,-0.900524 -0.0306,-0.0084 -0.0613,-0.0045 -0.0921,-0.0017 z m 16.3314,0 c -0.55353,-0.01477 -0.92251,0.495759 -0.99766,0.99776 -0.15461,0.833444 -0.0672,1.689089 -0.0431,2.530912 -0.74359,0.12303 -1.47362,0.344794 -2.23135,0.357259 -0.55419,0.01698 -0.89468,0.655645 -0.66286,1.139777 0.23836,0.305355 -0.0405,0.12061 -0.25224,0.237601 -0.41637,0.190621 -0.46398,0.723849 -0.70504,1.074356 -0.37639,0.611274 -0.75234,1.310903 -1.42473,1.636497 -0.48368,0.186129 -1.18346,0.282638 -1.53405,-0.190254 -0.29517,-0.501908 -0.20245,-1.119591 -0.11966,-1.667488 1.26085,-0.280866 2.57298,-0.724285 3.48821,-1.679538 0.5518,-0.553424 0.61432,-1.583756 -0.0448,-2.079846 -0.94494,-0.714117 -2.31097,-0.42239 -3.17344,0.286217 -1.30237,1.020755 -2.1022,2.652051 -2.16591,4.300057 -0.0586,0.971283 0.26699,2.056715 1.15126,2.573516 1.21764,0.756337 2.93596,0.437694 3.86751,-0.633114 0.75344,-0.768105 1.258,-1.767535 1.49996,-2.809473 0.0158,-0.199285 0.005,-0.426837 -0.12138,-0.58969 0.57267,0.242274 1.17959,-0.05433 1.75791,-0.12853 0.20804,0.0067 0.61541,-0.231549 0.68679,-0.04761 0.0256,1.298809 0.0489,2.610324 0.29629,3.889034 0.0632,0.457316 0.41437,0.964337 0.9314,0.879764 0.54187,-0.05622 1.14604,-0.614659 0.87816,-1.187578 -0.37295,-1.04902 -0.31517,-2.182402 -0.36511,-3.278329 0.0494,-0.213544 -0.11303,-0.606478 0.0801,-0.701872 0.84128,-0.163522 1.70168,-0.248986 2.52838,-0.475132 0.26818,-0.142564 0.36408,-0.219397 0.23763,0.122783 -0.17271,0.660199 0.21775,1.353472 0.83091,1.620154 0.92652,0.468287 1.98278,0.567833 2.96967,0.859877 0.28719,0.09914 0.8243,0.138835 0.78778,0.553102 -0.19257,0.491898 -0.76392,0.699175 -1.228,0.855637 -0.24171,0.0586 -0.52465,0.132263 -0.75629,0.09562 -0.0936,-0.436486 -0.7232,-0.552503 -1.05835,-0.308074 -0.37646,0.296121 -0.83857,0.637261 -0.90613,1.145692 -0.0209,0.599078 0.59713,0.963416 1.13804,0.954482 1.41474,0.116171 2.92839,-0.381898 3.87789,-1.462776 0.62417,-0.679178 0.86855,-1.847094 0.20263,-2.579956 -0.61941,-0.6177 -1.52605,-0.792391 -2.34229,-1.009219 -0.51152,-0.115846 -1.04844,-0.242582 -1.50934,-0.378363 -0.18507,-0.02852 -0.41258,-0.119266 -0.24609,-0.3295 0.4403,-0.541215 1.17254,-0.742934 1.8345,-0.85914 0.50266,0.313288 1.19928,-0.0093 1.34064,-0.570905 0.22248,-0.459762 -0.0155,-1.082443 -0.5404,-1.179556 -0.79391,-0.159075 -1.58093,0.188183 -2.30324,0.480421 -0.60984,0.286054 -1.18993,0.664311 -1.63743,1.172764 0.0641,-0.597844 -0.50353,-1.247204 -1.11528,-1.166444 -0.2568,0.0094 -0.39022,0.269742 -0.54534,0.408815 -0.56654,0.121201 -1.13097,0.252472 -1.69932,0.365078 -0.0351,-0.763222 -0.0388,-1.581693 0.10985,-2.36638 0.0933,-0.484555 -0.26498,-0.907215 -0.76669,-0.858409 z m -21.69887,2.031631 c -0.53033,0.117908 -0.5248,0.762548 -0.6587,1.182307 -0.33447,1.126519 -0.93401,2.155493 -1.5285,3.162205 -0.3238,0.513134 -0.65985,1.025991 -1.07805,1.468025 -0.0253,-0.53463 -0.007,-0.988018 0.026,-1.485695 0.0554,-1.161855 0.45736,-2.273979 0.99267,-3.295373 0.21456,-0.435313 -0.1803,-0.928221 -0.63988,-0.924721 -0.52474,-0.111865 -0.9408,0.32291 -1.11658,0.772372 -0.56335,1.202092 -0.79042,2.535977 -0.90437,3.849872 -0.026,0.835318 -0.0683,1.706848 0.20883,2.507411 0.26014,0.672095 1.16929,0.895997 1.73636,0.470032 0.8066,-0.577547 1.33865,-1.447177 1.8796,-2.260611 0.23379,-0.365629 0.4522,-0.741184 0.6608,-1.121715 0.0386,1.134762 0.008,2.374517 0.66917,3.354351 0.37818,0.614302 1.40416,0.486129 1.65172,-0.176908 0.16639,-0.340806 0.0779,-0.739725 -0.19244,-1.000167 -0.47529,-0.652533 -0.36685,-1.506446 -0.44374,-2.2669 -0.0593,-1.13466 -0.0641,-2.258879 -0.0904,-3.409777 -0.0576,-0.515395 -0.68262,-0.908461 -1.17249,-0.824708 z m -8.56299,0.438178 c -0.80901,0.02739 -1.3283,0.766458 -1.64683,1.429891 -0.64432,1.165822 -0.99364,2.501871 -1.00533,3.832828 -0.001,0.998342 0.69296,2.00887 1.7141,2.172115 1.21385,0.253477 2.51456,-0.202658 3.3476,-1.112001 0.73533,-0.77644 1.31752,-1.888062 1.03821,-2.980964 -0.20005,-0.786397 -0.84535,-1.342457 -1.42989,-1.857742 0.0604,-0.436556 -0.37519,-0.755152 -0.78635,-0.709326 -0.26251,0.06252 -0.34733,-0.02477 -0.36435,-0.274114 -0.13796,-0.326419 -0.52201,-0.52064 -0.86716,-0.500687 z m 24.36582,1.1174 c -0.38606,0.31525 -0.86383,0.547814 -1.33519,0.73087 0.34038,-0.377476 0.78732,-0.781698 1.33519,-0.73087 z m -24.31848,1.073496 c 0.48967,0.595354 1.29886,0.884603 1.67868,1.574513 0.17225,0.609582 -0.29083,1.192074 -0.73279,1.55959 -0.46053,0.404729 -1.18863,0.563976 -1.73702,0.255967 -0.26988,-0.312601 -0.10835,-0.777295 -0.10158,-1.150968 0.10912,-0.810137 0.47423,-1.559082 0.87722,-2.260624 z" />
    <path
       id="text121"
       style="font-style:normal;font-weight:normal;font-size:32px;line-height:125%;font-family:sans-serif;letter-spacing:0px;word-spacing:0px;white-space:pre;shape-inside:url(#rect122);display:inline;fill:#ecf2e6;fill-opacity:1;stroke:none;stroke-width:0;stroke-linecap:butt;stroke-linejoin:miter;stroke-dasharray:none;stroke-opacity:1"
       d="m 124.4887,-28.446658 c -0.61104,-0.01161 -0.99669,0.579327 -1.06058,1.13031 -0.11957,0.953335 -0.0595,1.920779 -0.10478,2.87977 -0.0286,1.768426 -0.0658,3.537738 -0.0528,5.30616 0.0402,0.591149 0.11621,1.336608 0.68869,1.65716 0.4969,0.187148 1.20891,-0.03348 1.38966,-0.565179 0.12214,-0.433268 -0.24233,-0.805187 -0.3123,-1.22212 -0.14366,-0.691241 -0.0332,-1.407681 -0.0555,-2.109245 0.0245,-1.90776 0.13156,-3.832894 0.24013,-5.737013 0.0318,-0.46614 0.0471,-1.106152 -0.47003,-1.31316 -0.0875,-0.0067 -0.17447,-0.03911 -0.26256,-0.02668 z m -10.44656,0.481218 c -0.65345,0.02233 -1.20111,0.855341 -0.76616,1.416981 0.40665,0.566061 1.27984,0.812169 1.86162,0.378015 0.34253,-0.271976 0.28362,-0.782021 -0.0108,-1.067568 -0.2663,-0.341277 -0.61776,-0.750294 -1.08469,-0.727428 z m 21.55856,0.759282 c -0.55186,-0.01498 -0.92365,0.492423 -0.99792,0.99426 -0.15586,0.834453 -0.0675,1.691478 -0.0437,2.534412 -0.74418,0.122664 -1.47476,0.345107 -2.23308,0.357259 -0.55135,0.01826 -0.89089,0.650418 -0.66372,1.134611 0.24176,0.312059 -0.0332,0.125789 -0.24965,0.242767 -0.41904,0.190052 -0.4628,0.726101 -0.70677,1.076075 -0.37454,0.61141 -0.75186,1.30947 -1.423,1.634778 -0.49318,0.19174 -1.22734,0.286411 -1.55674,-0.228045 -0.26632,-0.498554 -0.17933,-1.094326 -0.0978,-1.629697 1.26152,-0.280871 2.57522,-0.724466 3.48993,-1.681261 0.55084,-0.553742 0.61306,-1.584444 -0.0473,-2.078982 -0.94461,-0.713531 -2.30961,-0.420601 -3.17172,0.287076 -1.29224,1.010833 -2.08697,2.62371 -2.16467,4.255999 -0.0646,0.975466 0.24317,2.075566 1.12966,2.60347 1.21599,0.774871 2.9503,0.457823 3.8865,-0.617789 0.7541,-0.768282 1.25909,-1.768276 1.50133,-2.810694 0.0156,-0.198849 0.004,-0.427022 -0.12138,-0.58969 0.57242,0.242238 1.17906,-0.05401 1.75705,-0.128468 0.20791,0.0069 0.61571,-0.231726 0.68679,-0.04767 0.0271,1.297958 0.0499,2.608337 0.29628,3.886451 0.061,0.458555 0.41412,0.966894 0.93227,0.882347 0.54217,-0.05627 1.14624,-0.616435 0.87705,-1.188363 -0.37506,-1.06319 -0.31522,-2.211554 -0.36459,-3.321615 0.0601,-0.204346 -0.14519,-0.634018 0.12415,-0.665148 0.79924,-0.146889 1.59468,-0.252173 2.365,-0.428879 0.16512,0.01393 0.54894,-0.375242 0.38076,-0.03632 -0.20102,0.639002 0.0889,1.373707 0.69213,1.676955 0.89685,0.504028 1.94637,0.600017 2.92252,0.879019 0.31264,0.123907 0.79555,0.110975 0.94533,0.464787 0.035,0.416978 -0.43326,0.635846 -0.74229,0.807853 -0.38166,0.172752 -0.83367,0.310402 -1.23683,0.275974 -0.0936,-0.436486 -0.7232,-0.552503 -1.05836,-0.308074 -0.37624,0.296182 -0.83893,0.637261 -0.90613,1.145692 -0.0219,0.601366 0.59741,0.961913 1.13804,0.954526 1.415,0.116017 2.93026,-0.382189 3.87863,-1.464645 0.62285,-0.67842 0.86737,-1.84418 0.2029,-2.576535 -0.60686,-0.610071 -1.49806,-0.7853 -2.30032,-1.001031 -0.62036,-0.15271 -1.26385,-0.262098 -1.85608,-0.503291 0.0479,-0.442049 0.5484,-0.620575 0.89118,-0.801273 0.33395,-0.111072 0.69253,-0.273025 1.04231,-0.252424 0.52323,0.297412 1.19995,-0.08025 1.31884,-0.647364 0.2018,-0.467176 -0.0829,-1.057183 -0.59916,-1.133756 -0.80782,-0.131995 -1.59917,0.21607 -2.32949,0.520821 -0.58391,0.286186 -1.14344,0.651242 -1.57279,1.144947 0.0648,-0.588509 -0.47501,-1.207844 -1.07158,-1.178511 -0.27383,0.0044 -0.42838,0.262504 -0.58904,0.419163 -0.56626,0.121197 -1.13039,0.252543 -1.69847,0.365074 -0.0335,-0.762261 -0.0422,-1.580164 0.10945,-2.363749 0.0949,-0.483704 -0.26327,-0.910348 -0.76542,-0.86104 z m -21.23229,1.918858 c -0.4887,-0.01158 -0.7997,0.49289 -0.72447,0.943802 0.0841,2.103083 0.11375,4.213403 0.35167,6.305868 0.0498,0.470393 0.318,1.074686 0.87812,1.029239 0.52652,0.0052 0.97543,-0.510935 0.84079,-1.034691 -0.15128,-1.025118 -0.30138,-2.052792 -0.29156,-3.092279 -0.0141,-0.840439 0.0161,-1.768228 0.005,-2.643156 -0.0115,-0.518864 -0.0411,-1.201163 -0.59978,-1.432166 -0.14695,-0.05556 -0.30221,-0.08578 -0.4597,-0.07662 z m 3.16194,0.225546 c -0.62173,-0.0067 -1.22568,0.565431 -1.08296,1.20951 0.24129,1.502295 0.32698,3.041146 0.50348,4.540008 0.0844,0.456509 -0.005,0.968308 0.24891,1.377554 0.52564,0.50532 1.51231,0.154522 1.67274,-0.542991 0.52339,-1.353167 1.00756,-2.732498 1.70442,-4.008383 0.10234,-0.08446 0.0463,0.473968 0.0701,0.593304 0.0285,1.319225 -0.11448,2.660805 -0.16121,4.004725 -0.0661,0.393617 0.0758,0.84471 0.48191,0.98552 0.64461,0.299343 1.49824,-0.271223 1.38967,-0.99653 -0.0338,-1.738283 0.0589,-3.489131 -0.18704,-5.215447 -0.0891,-0.607501 -0.27902,-1.374161 -0.96159,-1.546107 -0.7757,-0.152009 -1.37887,0.52009 -1.7311,1.123487 -0.39988,0.671284 -0.70504,1.394106 -1.02107,2.107328 -0.0939,-1.035053 -0.0542,-2.089733 -0.26859,-3.109433 -0.0764,-0.294173 -0.33707,-0.561402 -0.6577,-0.522545 z m 12.17345,1.442805 c -0.38614,0.31518 -0.8638,0.547747 -1.3352,0.73087 0.34059,-0.377357 0.78712,-0.781791 1.3352,-0.73087 z" />
    <text
       xml:space="preserve"
       transform="matrix(0.44076113,0,0,0.44076113,88.190469,-178.35107)"
       id="text94"
       style="font-style:normal;font-weight:normal;font-size:32px;line-height:125%;font-family:sans-serif;letter-spacing:0px;word-spacing:0px;white-space:pre;shape-inside:url(#rect95);display:inline;fill:#131323;fill-opacity:1;stroke:none;stroke-width:0;stroke-linecap:butt;stroke-linejoin:miter;stroke-dasharray:none;stroke-opacity:1"
       x="141.76003"
       y="0"><tspan
         x="56.734375"
         y="364.11601"
         id="tspan3"><tspan
           style="font-weight:bold;font-family:'Ink Free';-inkscape-font-specification:'Ink Free Bold'"
           id="tspan2">inlets</tspan></tspan></text>
    <path
       id="path78"
       style="color:#000000;fill:#131323;fill-opacity:1;fill-rule:evenodd;stroke:#ecf2e6;stroke-width:0.3;stroke-dasharray:none;stroke-opacity:1"
       d="m 36.773188,-42.218587 v 27.306344 h 88.793032 3.49798 v 7.138582 l -2.03864,-2.0386353 2.53886,8.8867961 2.53887,-8.8867961 -2.03864,2.0386353 v -7.138582 h 92.7871 v -27.306344 h -0.99994 v 26.306405 h -30.75006 v -26.306405 h -0.99994 v 26.306405 h -30.75006 v -26.306405 h -0.99994 v 26.306405 h -28.28716 -4.49843 -24.29258 v -26.306405 h -1.00045 v 26.306405 H 69.523643 v -26.306405 h -1.000455 v 26.306405 H 37.773643 v -26.306405 z"
       sodipodi:nodetypes="ccccccccccccccccccccccccccccccccccc" />
    <path
       id="path118"
       style="color:#000000;fill:#131323;fill-opacity:1;fill-rule:evenodd;stroke:#ecf2e6;stroke-width:0.3;stroke-dasharray:none;stroke-opacity:1"
       d="m 129.24196,44.56578 v 7.784021 H 44.632656 v 5.491654 l -2.039152,-2.038635 2.53938,8.886796 2.538863,-8.886796 -2.039152,2.039152 V 53.34974 H 91.72849 v 4.491715 l -2.039152,-2.038635 2.539379,8.886796 2.538864,-8.886796 -2.039152,2.039152 V 53.34974 h 37.519671 35.98437 v 4.492232 l -2.03915,-2.039152 2.53886,8.886796 2.53938,-8.886796 -2.03915,2.038635 V 53.34974 h 46.62506 v 4.492232 l -2.03915,-2.039152 2.53886,8.886796 2.53938,-8.886796 -2.03915,2.038635 V 52.349801 H 130.2481 V 44.56578 h -0.006 z"
       sodipodi:nodetypes="ccccccccccccccccccccccccccccccccccc" />
    <rect
       style="fill:#131323;fill-opacity:1;stroke:#ecf2e6;stroke-width:1.07584;stroke-linecap:butt;stroke-linejoin:round;stroke-opacity:1"
       id="rect5"
       width="101.54097"
       height="52.219662"
       x="18.31072"
       y="-82.109207" />
    <text
       xml:space="preserve"
       style="font-style:normal;font-weight:normal;font-size:7.07969px;line-height:1.25;font-family:sans-serif;letter-spacing:-0.283188px;fill:#ffffff;fill-opacity:1;stroke:none;stroke-width:0.176993"
       x="60.354221"
       y="-54.222775"
       id="text1"><tspan
         sodipodi:role="line"
         id="tspan1"
         x="60.354221"
         y="-54.222775"
         style="font-style:normal;font-variant:normal;font-weight:normal;font-stretch:normal;font-family:Arial;-inkscape-font-specification:Arial;fill:#ffffff;fill-opacity:1;stroke-width:0.176993">XRAY</tspan></text>
    <path
       style="fill:#2bb34b;fill-opacity:1;stroke:none;stroke-width:0.176993px;stroke-linecap:butt;stroke-linejoin:miter;stroke-opacity:1"
       d="m 64.901286,-68.205998 -0.03067,-5.704666 6.655443,-5.950026 -3.343055,6.103377 z"
       id="path1"
       sodipodi:nodetypes="ccccc" />
    <path
       style="fill:#2bb34b;fill-opacity:0.8;stroke:none;stroke-width:0.176993px;stroke-linecap:butt;stroke-linejoin:miter;stroke-opacity:1"
       d="m 69.225788,-69.248787 -4.324502,1.042789 3.281717,-5.551315 3.404397,0.03067 2.177588,3.312386 z"
       id="path3"
       sodipodi:nodetypes="cccccc" />
    <path
       style="fill:#2cb34c;fill-opacity:0.501961;stroke:none;stroke-width:0.176993px;stroke-linecap:butt;stroke-linejoin:miter;stroke-opacity:1"
       d="m 67.048204,-60.96782 2.177584,-8.280967 4.5392,-1.165469 z"
       id="path5"
       sodipodi:nodetypes="cccc" />
    <rect
       style="fill:#131323;fill-opacity:1;stroke:#ecf2e6;stroke-width:0.529167;stroke-linecap:butt;stroke-linejoin:round;stroke-dasharray:none;stroke-opacity:1"
       id="rect6"
       width="24.481514"
       height="13.533793"
       x="25.083015"
       y="-49.562458" />
    <rect
       style="fill:#131323;fill-opacity:1;stroke:#ecf2e6;stroke-width:0.529167;stroke-linecap:butt;stroke-linejoin:round;stroke-dasharray:none;stroke-opacity:1"
       id="rect7"
       width="24.481514"
       height="13.533793"
       x="56.833023"
       y="-49.562458"
       inkscape:connector-avoid="true" />
    <rect
       style="fill:#131323;fill-opacity:1;stroke:#ecf2e6;stroke-width:0.529167;stroke-linecap:butt;stroke-linejoin:round;stroke-dasharray:none;stroke-opacity:1"
       id="rect8"
       width="24.481514"
       height="13.533793"
       x="88.583008"
       y="-49.562458"
       inkscape:connector-avoid="true" />
    <text
       xml:space="preserve"
       style="font-style:normal;font-weight:normal;font-size:4.93889px;line-height:125%;font-family:sans-serif;letter-spacing:0px;word-spacing:0px;fill:#ecf2e6;fill-opacity:1;stroke:none;stroke-width:0.264583px;stroke-linecap:butt;stroke-linejoin:miter;stroke-opacity:1"
       x="27.471754"
       y="-41.097904"
       id="text9"><tspan
         sodipodi:role="line"
         id="tspan9"
         style="font-style:normal;font-variant:normal;font-weight:bold;font-stretch:normal;font-size:4.93889px;font-family:Arial;-inkscape-font-specification:'Arial Bold';fill:#ecf2e6;fill-opacity:1;stroke-width:0.264583px"
         x="27.471754"
         y="-41.097904">ABC-123</tspan></text>
    <text
       xml:space="preserve"
       style="font-style:normal;font-weight:normal;font-size:4.93889px;line-height:125%;font-family:sans-serif;letter-spacing:0px;word-spacing:0px;fill:#ecf2e6;fill-opacity:1;stroke:none;stroke-width:0.264583px;stroke-linecap:butt;stroke-linejoin:miter;stroke-opacity:1"
       x="58.818954"
       y="-41.097904"
       id="text11"><tspan
         sodipodi:role="line"
         id="tspan11"
         style="font-style:normal;font-variant:normal;font-weight:bold;font-stretch:normal;font-size:4.93889px;font-family:Arial;-inkscape-font-specification:'Arial Bold';fill:#ecf2e6;fill-opacity:1;stroke-width:0.264583px"
         x="58.818954"
         y="-41.097904">ABC-456</tspan></text>
    <text
       xml:space="preserve"
       style="font-style:normal;font-weight:normal;font-size:4.93889px;line-height:125%;font-family:sans-serif;letter-spacing:0px;word-spacing:0px;fill:#ecf2e6;fill-opacity:1;stroke:none;stroke-width:0.264583px;stroke-linecap:butt;stroke-linejoin:miter;stroke-opacity:1"
       x="91.500916"
       y="-41.097904"
       id="text12"><tspan
         sodipodi:role="line"
         id="tspan12"
         style="font-style:normal;font-variant:normal;font-weight:bold;font-stretch:normal;font-size:4.93889px;font-family:Arial;-inkscape-font-specification:'Arial Bold';fill:#ecf2e6;fill-opacity:1;stroke-width:0.264583px"
         x="91.500916"
         y="-41.097904">PRJ-789</tspan></text>
    <rect
       style="fill:#131323;fill-opacity:1;stroke:#ecf2e6;stroke-width:1.07584;stroke-linecap:butt;stroke-linejoin:round;stroke-opacity:1"
       id="rect12"
       width="101.54097"
       height="52.219662"
       x="140.01906"
       y="-82.109207" />
    <rect
       style="fill:#131323;fill-opacity:1;stroke:#ecf2e6;stroke-width:0.529167;stroke-linecap:butt;stroke-linejoin:round;stroke-dasharray:none;stroke-opacity:1"
       id="rect17"
       width="24.481514"
       height="13.533793"
       x="146.79132"
       y="-49.562458" />
    <rect
       style="fill:#131323;fill-opacity:1;stroke:#ecf2e6;stroke-width:0.529167;stroke-linecap:butt;stroke-linejoin:round;stroke-dasharray:none;stroke-opacity:1"
       id="rect18"
       width="24.481514"
       height="13.533793"
       x="178.54138"
       y="-49.562458" />
    <rect
       style="fill:#131323;fill-opacity:1;stroke:#ecf2e6;stroke-width:0.529167;stroke-linecap:butt;stroke-linejoin:round;stroke-dasharray:none;stroke-opacity:1"
       id="rect19"
       width="24.481514"
       height="13.533793"
       x="210.29138"
       y="-49.562458" />
    <text
       xml:space="preserve"
       style="font-style:normal;font-weight:normal;font-size:4.93889px;line-height:125%;font-family:sans-serif;letter-spacing:0px;word-spacing:0px;fill:#ecf2e6;fill-opacity:1;stroke:none;stroke-width:0.264583px;stroke-linecap:butt;stroke-linejoin:miter;stroke-opacity:1"
       x="150.2384"
       y="-41.097904"
       id="text19"><tspan
         sodipodi:role="line"
         id="tspan19"
         style="font-style:normal;font-variant:normal;font-weight:bold;font-stretch:normal;font-size:4.93889px;font-family:Arial;-inkscape-font-specification:'Arial Bold';fill:#ecf2e6;fill-opacity:1;stroke-width:0.264583px"
         x="150.2384"
         y="-41.097904">#12345</tspan></text>
    <text
       xml:space="preserve"
       style="font-style:normal;font-weight:normal;font-size:4.93889px;line-height:125%;font-family:sans-serif;letter-spacing:0px;word-spacing:0px;fill:#ecf2e6;fill-opacity:1;stroke:none;stroke-width:0.264583px;stroke-linecap:butt;stroke-linejoin:miter;stroke-opacity:1"
       x="182.64395"
       y="-41.097904"
       id="text20"><tspan
         sodipodi:role="line"
         id="tspan20"
         style="font-style:normal;font-variant:normal;font-weight:bold;font-stretch:normal;font-size:4.93889px;font-family:Arial;-inkscape-font-specification:'Arial Bold';fill:#ecf2e6;fill-opacity:1;stroke-width:0.264583px"
         x="182.64395"
         y="-41.097904">#54321</tspan></text>
    <text
       xml:space="preserve"
       style="font-style:normal;font-weight:normal;font-size:4.93889px;line-height:125%;font-family:sans-serif;letter-spacing:0px;word-spacing:0px;fill:#ecf2e6;fill-opacity:1;stroke:none;stroke-width:0.264583px;stroke-linecap:butt;stroke-linejoin:miter;stroke-opacity:1"
       x="214.26765"
       y="-41.097904"
       id="text21"><tspan
         sodipodi:role="line"
         id="tspan21"
         style="font-style:normal;font-variant:normal;font-weight:bold;font-stretch:normal;font-size:4.93889px;font-family:Arial;-inkscape-font-specification:'Arial Bold';fill:#ecf2e6;fill-opacity:1;stroke-width:0.264583px"
         x="214.26765"
         y="-41.097904">#22694</tspan></text>
    <path
       d="m 201.49876,-74.475076 v 12.69393 l -5.21312,4.27478 -8.08032,-2.94541 v 2.91931 l -4.57451,-5.98202 13.33254,1.04259 v -11.42972 z m -4.44418,0.63862 -7.48082,-4.54846 v 2.98453 l -6.86828,2.02006 -2.05918,2.64569 v 6.00807 l 2.94541,1.30331 v -7.70239 z"
       fill="url(#a)"
       id="path21"
       style="fill:url(#linearGradient21);stroke-width:1.30328" />
    <rect
       style="fill:#131323;fill-opacity:1;stroke:#ecf2e6;stroke-width:1.07584;stroke-linecap:butt;stroke-linejoin:round;stroke-opacity:1"
       id="rect24"
       width="101.54097"
       height="52.219662"
       x="18.310717"
       y="66.057465" />
    <rect
       style="fill:#131323;fill-opacity:1;stroke:#ecf2e6;stroke-width:0.529167;stroke-linecap:butt;stroke-linejoin:round;stroke-dasharray:none;stroke-opacity:1"
       id="rect27"
       width="43.599491"
       height="13.445013"
       x="23.010733"
       y="72.190269" />
    <text
       xml:space="preserve"
       style="font-style:normal;font-weight:normal;font-size:4.93889px;line-height:125%;font-family:sans-serif;letter-spacing:0px;word-spacing:0px;fill:#ecf2e6;fill-opacity:1;stroke:none;stroke-width:0.264583px;stroke-linecap:butt;stroke-linejoin:miter;stroke-opacity:1"
       x="26.41342"
       y="80.610428"
       id="text29"><tspan
         sodipodi:role="line"
         id="tspan29"
         style="font-style:normal;font-variant:normal;font-weight:bold;font-stretch:normal;font-size:4.93889px;font-family:Arial;-inkscape-font-specification:'Arial Bold';fill:#ecf2e6;fill-opacity:1;stroke-width:0.264583px"
         x="26.41342"
         y="80.610428">#tester-channel</tspan></text>
    <path
       d="m 59.66613,105.98867 0.578756,-1.34421 c 0.62543,0.46674 1.456227,0.70945 2.27769,0.70945 0.606761,0 0.989487,-0.23338 0.989487,-0.5881 -0.0093,-0.98949 -3.631234,-0.2147 -3.659239,-2.69775 -0.0093,-1.26019 1.110842,-2.231007 2.697755,-2.231007 0.942814,0 1.885627,0.233357 2.557733,0.765437 l -0.541418,1.37222 c -0.616096,-0.39206 -1.381549,-0.67211 -2.109663,-0.67211 -0.494744,0 -0.821461,0.23337 -0.821461,0.53208 0.0093,0.97082 3.659238,0.43874 3.696576,2.80978 0,1.2882 -1.09217,2.19367 -2.660414,2.19367 -1.14818,0 -2.20301,-0.2707 -3.005802,-0.84946 m 22.207466,-1.82962 c -0.289379,0.50408 -0.830797,0.84945 -1.456227,0.84945 -0.924144,0 -1.670929,-0.74677 -1.670929,-1.67092 0,-0.92415 0.746785,-1.67092 1.670929,-1.67092 0.62543,0 1.166848,0.34539 1.456227,0.84947 l 1.596248,-0.88681 c -0.597425,-1.06417 -1.745606,-1.792267 -3.052475,-1.792267 -1.932303,0 -3.500547,1.568237 -3.500547,3.500527 0,1.9323 1.568244,3.50055 3.500547,3.50055 1.316205,0 2.45505,-0.71878 3.052475,-1.79227 z M 66.135138,96.933923 h 1.997646 v 9.773517 h -1.997646 z m 18.118829,0 v 9.773517 h 1.997644 v -2.93112 l 2.371038,2.93112 h 2.557733 l -3.015137,-3.48187 2.791103,-3.248507 h -2.445716 l -2.259021,2.697747 V 96.933923 Z M 74.06971,104.17772 c -0.289377,0.47607 -0.886805,0.83078 -1.558908,0.83078 -0.924145,0 -1.670929,-0.74677 -1.670929,-1.67092 0,-0.92415 0.746784,-1.67092 1.670929,-1.67092 0.672103,0 1.269531,0.37339 1.558908,0.8588 z m 0,-4.200657 v 0.793447 c -0.326717,-0.55075 -1.138843,-0.933457 -1.988309,-0.933457 -1.754941,0 -3.136489,1.549567 -3.136489,3.491197 0,1.94163 1.381548,3.50988 3.136489,3.50988 0.849466,0 1.661592,-0.38273 1.988309,-0.93348 v 0.79346 h 1.997646 v -6.721047 z"
       fill="#000000"
       id="path32"
       style="fill:#ffffff;fill-opacity:1;stroke-width:0.0933477" />
    <path
       d="m 47.316201,104.16838 c 0,0.68145 -0.550752,1.2322 -1.232193,1.2322 -0.68144,0 -1.232192,-0.55075 -1.232192,-1.2322 0,-0.68143 0.550752,-1.23219 1.232192,-1.23219 h 1.232193 z m 0.616096,0 c 0,-0.68143 0.550753,-1.23219 1.232192,-1.23219 0.68144,0 1.232193,0.55076 1.232193,1.23219 v 3.08048 c 0,0.68144 -0.550753,1.2322 -1.232193,1.2322 -0.681439,0 -1.232192,-0.55076 -1.232192,-1.2322 z"
       fill="#e01e5a"
       id="path34"
       style="stroke-width:0.0933477" />
    <path
       d="m 49.164489,99.220943 c -0.681439,0 -1.232192,-0.55075 -1.232192,-1.23219 0,-0.68144 0.550753,-1.2322 1.232192,-1.2322 0.68144,0 1.232193,0.55076 1.232193,1.2322 v 1.23219 z m 0,0.62543 c 0.68144,0 1.232193,0.550757 1.232193,1.232197 0,0.68143 -0.550753,1.23218 -1.232193,1.23218 h -3.089815 c -0.68144,0 -1.232193,-0.55075 -1.232193,-1.23218 0,-0.68144 0.550753,-1.232197 1.232193,-1.232197 z"
       fill="#36c5f0"
       id="path36"
       style="stroke-width:0.0933477" />
    <path
       d="m 54.102594,101.07857 c 0,-0.68144 0.550753,-1.232197 1.232193,-1.232197 0.681439,0 1.232192,0.550757 1.232192,1.232197 0,0.68143 -0.550753,1.23218 -1.232192,1.23218 h -1.232193 z m -0.616096,0 c 0,0.68143 -0.550752,1.23218 -1.232193,1.23218 -0.681439,0 -1.232191,-0.55075 -1.232191,-1.23218 v -3.089817 c 0,-0.68144 0.550752,-1.2322 1.232191,-1.2322 0.681441,0 1.232193,0.55076 1.232193,1.2322 z"
       fill="#2eb67d"
       id="path37"
       style="stroke-width:0.0933477" />
    <path
       d="m 52.254305,106.01667 c 0.681441,0 1.232193,0.55076 1.232193,1.23219 0,0.68144 -0.550752,1.2322 -1.232193,1.2322 -0.681439,0 -1.232191,-0.55076 -1.232191,-1.2322 v -1.23219 z m 0,-0.61609 c -0.681439,0 -1.232191,-0.55075 -1.232191,-1.2322 0,-0.68143 0.550752,-1.23219 1.232191,-1.23219 h 3.089817 c 0.681439,0 1.232191,0.55076 1.232191,1.23219 0,0.68145 -0.550752,1.2322 -1.232191,1.2322 z"
       fill="#ecb22e"
       id="path38"
       style="stroke-width:0.0933477" />
    <rect
       style="fill:#131323;fill-opacity:1;stroke:#ecf2e6;stroke-width:0.529167;stroke-linecap:butt;stroke-linejoin:round;stroke-dasharray:none;stroke-opacity:1"
       id="rect38"
       width="43.599491"
       height="13.445013"
       x="70.635735"
       y="72.190269" />
    <text
       xml:space="preserve"
       style="font-style:normal;font-weight:normal;font-size:4.93889px;line-height:125%;font-family:sans-serif;letter-spacing:0px;word-spacing:0px;fill:#ecf2e6;fill-opacity:1;stroke:none;stroke-width:0.264583px;stroke-linecap:butt;stroke-linejoin:miter;stroke-opacity:1"
       x="77.213425"
       y="80.610428"
       id="text38"><tspan
         sodipodi:role="line"
         id="tspan38"
         style="font-style:normal;font-variant:normal;font-weight:bold;font-stretch:normal;font-size:4.93889px;font-family:Arial;-inkscape-font-specification:'Arial Bold';fill:#ecf2e6;fill-opacity:1;stroke-width:0.264583px"
         x="77.213425"
         y="80.610428">#project-lead</tspan></text>
    <rect
       style="fill:#131323;fill-opacity:1;stroke:#ecf2e6;stroke-width:1.07584;stroke-linecap:butt;stroke-linejoin:round;stroke-opacity:1"
       id="rect39"
       width="101.54097"
       height="52.219662"
       x="140.01906"
       y="66.057465" />
    <rect
       style="fill:#131323;fill-opacity:1;stroke:#ecf2e6;stroke-width:0.529167;stroke-linecap:butt;stroke-linejoin:round;stroke-dasharray:none;stroke-opacity:1"
       id="rect40"
       width="43.599491"
       height="13.445013"
       x="144.71907"
       y="72.190269" />
    <text
       xml:space="preserve"
       style="font-style:normal;font-weight:normal;font-size:4.93889px;line-height:125%;font-family:sans-serif;letter-spacing:0px;word-spacing:0px;fill:#ecf2e6;fill-opacity:1;stroke:none;stroke-width:0.264583px;stroke-linecap:butt;stroke-linejoin:miter;stroke-opacity:1"
       x="148.12175"
       y="80.610428"
       id="text40"><tspan
         sodipodi:role="line"
         id="tspan40"
         style="font-style:normal;font-variant:normal;font-weight:bold;font-stretch:normal;font-size:4.93889px;font-family:Arial;-inkscape-font-specification:'Arial Bold';fill:#ecf2e6;fill-opacity:1;stroke-width:0.264583px"
         x="148.12175"
         y="80.610428">Quality Channel</tspan></text>
    <rect
       style="fill:#131323;fill-opacity:1;stroke:#ecf2e6;stroke-width:0.529167;stroke-linecap:butt;stroke-linejoin:round;stroke-dasharray:none;stroke-opacity:1"
       id="rect44"
       width="43.599491"
       height="13.445013"
       x="192.34412"
       y="72.190269" />
    <text
       xml:space="preserve"
       style="font-style:normal;font-weight:normal;font-size:4.93889px;line-height:125%;font-family:sans-serif;letter-spacing:0px;word-spacing:0px;fill:#ecf2e6;fill-opacity:1;stroke:none;stroke-width:0.264583px;stroke-linecap:butt;stroke-linejoin:miter;stroke-opacity:1"
       x="197.86348"
       y="80.610428"
       id="text44"><tspan
         sodipodi:role="line"
         id="tspan44"
         style="font-style:normal;font-variant:normal;font-weight:bold;font-stretch:normal;font-size:4.93889px;font-family:Arial;-inkscape-font-specification:'Arial Bold';fill:#ecf2e6;fill-opacity:1;stroke-width:0.264583px"
         x="197.86348"
         y="80.610428">Tiger Team 🐅</tspan></text>
    <path
       fill="#5059c9"
       d="m 194.64683,101.16225 h 5.7357 c 0.54189,0 0.98117,0.43928 0.98117,0.98116 0,0 0,0 0,0 v 5.22447 c 0,1.99156 -1.61448,3.60604 -3.60605,3.60604 v 0 h -0.017 c -1.99157,2.7e-4 -3.60627,-1.61396 -3.60656,-3.60554 0,-1.8e-4 0,-3.3e-4 0,-4.1e-4 v -5.69282 c 0,-0.28321 0.22959,-0.51279 0.51279,-0.51279 z"
       id="path44"
       style="stroke-width:0.00996278" />
    <circle
       fill="#5059c9"
       cx="198.52356"
       cy="97.805695"
       r="2.3238192"
       id="circle44"
       style="stroke-width:0.00996278" />
    <circle
       fill="#7b83eb"
       cx="191.29385"
       cy="96.772873"
       r="3.3566308"
       id="circle45"
       style="stroke-width:0.00996278" />
    <path
       fill="#7b83eb"
       d="m 195.7695,101.16225 h -9.46775 c -0.53543,0.0132 -0.95898,0.4576 -0.94656,0.99305 v 5.95879 c -0.0748,3.21318 2.46734,5.87964 5.68043,5.95827 3.2131,-0.0786 5.75521,-2.74509 5.68045,-5.95827 v -5.95879 c 0.0124,-0.53545 -0.41115,-0.9798 -0.94657,-0.99305 z"
       id="path45"
       style="stroke-width:0.00996278" />
    <path
       opacity="0.1"
       d="m 191.55202,101.16225 v 8.35025 c -0.003,0.38293 -0.23461,0.72693 -0.5887,0.87273 -0.11274,0.0477 -0.23391,0.0723 -0.35632,0.0723 h -4.79738 c -0.0671,-0.17041 -0.1291,-0.34082 -0.18074,-0.5164 -0.18077,-0.59255 -0.273,-1.20855 -0.2737,-1.82807 v -5.95931 c -0.0125,-0.53458 0.41044,-0.97824 0.94501,-0.99149 z"
       id="path46"
       style="stroke-width:0.00996278" />
    <path
       opacity="0.2"
       d="m 191.03562,101.16225 v 8.86666 c 0,0.12241 -0.0246,0.24357 -0.0723,0.35632 -0.14579,0.35408 -0.48981,0.58614 -0.87272,0.58869 h -4.03827 c -0.0878,-0.17041 -0.17041,-0.34082 -0.24271,-0.5164 -0.0723,-0.17557 -0.1291,-0.34082 -0.18075,-0.5164 -0.18076,-0.59254 -0.273,-1.20855 -0.27369,-1.82807 v -5.95931 c -0.0125,-0.53458 0.41044,-0.97824 0.94501,-0.99149 z"
       id="path47"
       style="stroke-width:0.00996278" />
    <path
       opacity="0.2"
       d="m 191.03562,101.16225 v 7.83386 c -0.004,0.52028 -0.42473,0.94108 -0.94502,0.94501 h -4.46172 c -0.18075,-0.59254 -0.27299,-1.20855 -0.27369,-1.82807 v -5.95931 c -0.0124,-0.53458 0.41044,-0.97824 0.94501,-0.99149 z"
       id="path48"
       style="stroke-width:0.00996278" />
    <path
       opacity="0.2"
       d="m 190.51921,101.16225 v 7.83386 c -0.004,0.52028 -0.42473,0.94108 -0.94502,0.94501 h -3.94531 c -0.18075,-0.59254 -0.27299,-1.20855 -0.27369,-1.82807 v -5.95931 c -0.0124,-0.53458 0.41044,-0.97824 0.94501,-0.99149 z"
       id="path49"
       style="stroke-width:0.00996278" />
    <path
       opacity="0.1"
       d="m 191.55202,98.492453 v 1.626657 c -0.0878,0.005 -0.17041,0.0103 -0.2582,0.0103 -0.0878,0 -0.17042,-0.005 -0.25821,-0.0103 -0.17431,-0.0115 -0.34719,-0.0392 -0.5164,-0.0826 -1.04573,-0.247637 -1.90965,-0.981017 -2.32382,-1.972657 -0.0713,-0.16652 -0.12658,-0.33944 -0.16525,-0.5164 h 2.57685 c 0.52111,0.002 0.94305,0.42391 0.94503,0.94502 z"
       id="path50"
       style="stroke-width:0.00996278" />
    <path
       opacity="0.2"
       d="m 191.03562,99.008843 v 1.110267 c -0.17431,-0.0115 -0.34718,-0.0392 -0.5164,-0.0826 -1.04572,-0.247637 -1.90965,-0.981017 -2.32381,-1.972657 h 1.89519 c 0.52109,0.002 0.94304,0.42392 0.94502,0.94501 z"
       id="path51"
       style="stroke-width:0.00996278" />
    <path
       opacity="0.2"
       d="m 191.03562,99.008843 v 1.110267 c -0.17431,-0.0115 -0.34718,-0.0392 -0.5164,-0.0826 -1.04572,-0.247637 -1.90965,-0.981017 -2.32381,-1.972657 h 1.89519 c 0.52109,0.002 0.94304,0.42392 0.94502,0.94501 z"
       id="path52"
       style="stroke-width:0.00996278" />
    <path
       opacity="0.2"
       d="m 190.51921,99.008843 v 1.027647 c -1.04573,-0.247647 -1.90965,-0.981027 -2.32382,-1.972667 h 1.3788 c 0.5211,0.002 0.94303,0.42393 0.94502,0.94502 z"
       id="path53"
       style="stroke-width:0.00996278" />
    <path
       fill="url(#a)"
       d="m 180.10493,98.063823 h 9.4677 c 0.52278,0 0.94657,0.4238 0.94657,0.94657 v 9.467737 c 0,0.52279 -0.42379,0.94658 -0.94657,0.94658 h -9.4677 c -0.52278,0 -0.94656,-0.42381 -0.94656,-0.94658 v -9.467737 c 0,-0.52277 0.4238,-0.94657 0.94656,-0.94657 z"
       id="path54"
       style="fill:url(#linearGradient55);stroke-width:0.00996278" />
    <path
       fill="#ffffff"
       d="m 187.32991,101.66729 h -1.89262 v 5.15372 h -1.20579 v -5.15372 h -1.88383 v -0.99975 h 4.98224 z"
       id="path55"
       style="stroke-width:0.00996278" />
    <g
       id="g64"
       transform="matrix(0.64635462,0,0,0.64635462,59.678002,-61.747011)">
      <path
         style="fill:#ecf2e6;fill-opacity:1;stroke:none;stroke-width:0.0797945px;stroke-linecap:butt;stroke-linejoin:miter;stroke-opacity:1"
         d="m 98.948268,117.20916 0.896254,2.36285 2.851718,0.89625 2.7974,-1.14068 0.0272,-3.04183 -2.28138,-2.25422 -3.503535,0.89626 z"
         id="path56" />
      <path
         id="path57"
         style="fill:#627d77;fill-opacity:1;stroke:none;stroke-width:0.0797945px;stroke-linecap:butt;stroke-linejoin:miter;stroke-opacity:1"
         d="m 95.645509,108.40281 -0.03834,18.93562 4.536131,0.76163 7.93052,3.63922 4.56262,6.40959 3.4427,7.39533 1.80519,5.91493 7.57129,-0.0566 -2.71582,-4.18251 -3.04186,-7.7675 0.16287,-6.19233 -1.30352,-9.45129 -4.39992,-7.0615 -4.72564,-4.454 -7.65887,-3.53075 z m 6.680921,4.13841 c 2.57307,0 4.66642,2.09335 4.66642,4.66642 0,2.57308 -2.09335,4.66642 -4.66642,4.66642 -2.573076,0 -4.666421,-2.09335 -4.666421,-4.66642 0,-2.57307 2.093345,-4.66642 4.666421,-4.66642 z"
         sodipodi:nodetypes="ccccccccccccccccsssss" />
      <path
         style="fill:#d0e18e;fill-opacity:1;stroke:none;stroke-width:0.0797945px;stroke-linecap:butt;stroke-linejoin:miter;stroke-opacity:1"
         d="m 95.607114,127.33836 0.72977,7.91224 4.340206,7.10565 6.18384,5.56929 11.02335,3.53362 -1.80522,-5.91497 -4.64747,-10.60086 -5.49248,-4.68589 -8.10428,-2.84226 z"
         id="path58" />
      <path
         style="fill:#8c1039;fill-opacity:1;stroke:none;stroke-width:0.0797945px;stroke-linecap:butt;stroke-linejoin:miter;stroke-opacity:1"
         d="m 76.402658,122.26839 1.613174,-7.06724 5.492474,-5.64611 9.52541,-1.68999 2.611808,0.53772 -0.460909,9.25655 -6.644741,0.19204 -7.989054,2.07408 z"
         id="path59" />
      <path
         d="m 102.32642,112.54125 c -2.573078,0 -4.666392,2.09332 -4.666392,4.66639 0,2.57308 2.093314,4.66639 4.666392,4.66639 2.57307,0 4.66639,-2.09331 4.66639,-4.66639 0,-2.57307 -2.09332,-4.66639 -4.66639,-4.66639 z m 0,7.09091 c -1.33676,0 -2.424516,-1.08761 -2.424516,-2.42452 0,-1.3369 1.087606,-2.42451 2.424516,-2.42451 1.3369,0 2.42451,1.08761 2.42451,2.42451 0,1.33691 -1.08761,2.42452 -2.42451,2.42452 z"
         id="path60"
         style="fill:#1f1f39;fill-opacity:1;stroke-width:0.149458" />
      <path
         d="m 101.65864,116.3073 c -0.39099,0.28936 -0.5524,0.81963 -0.38725,1.27757 0.15917,0.4418 0.58588,0.74296 1.05563,0.74296 0.52041,0 0.97611,-0.36991 1.09224,-0.87448 0.22807,-0.99121 -0.94592,-1.74911 -1.76062,-1.14605 z"
         id="path61"
         style="fill:#1f1f39;fill-opacity:1;stroke-width:0.149458" />
      <path
         style="fill:#580a24;fill-opacity:1;stroke:none;stroke-width:0.0797945px;stroke-linecap:butt;stroke-linejoin:miter;stroke-opacity:1"
         d="m 77.492498,122.7768 6.952756,-4.29116 10.739361,-0.82632 -0.03863,5.49771 z"
         id="path62" />
      <path
         id="path63"
         style="fill:#ecf2e6;fill-opacity:1;stroke:none;stroke-width:0.0797945px;stroke-linecap:butt;stroke-linejoin:miter;stroke-opacity:1"
         d="m 110.04889,98.14766 -3.61039,0.729684 -1.49802,2.880706 2.70008,1.1377 -5.35029,-1.21453 -1.65152,6.79843 9.75581,4.4554 4.53224,-6.14543 -5.24883,-3.03546 2.09928,0.8846 1.11385,-1.65169 -0.49934,-3.187881 z" />
      <path
         d="m 126.83894,150.44928 -0.54882,-0.52983 v 0 c -3.50704,-3.38509 -5.51845,-8.12202 -5.51845,-12.99616 v -4.88938 c 0,-7.68126 -3.44247,-14.57264 -8.86467,-19.21556 l 3.91117,-5.53848 c 0.33658,-0.47647 0.25139,-1.1317 -0.19624,-1.50609 -0.70335,-0.58872 -1.43599,-1.13424 -2.1936,-1.63672 l 0.2768,-0.66793 c 1.04023,-2.51269 -0.15708,-5.403668 -2.66933,-6.444496 -2.51314,-1.04023 -5.40396,0.157828 -6.44434,2.670821 l -0.31611,0.763135 c -0.49934,-0.0904 -1.00182,-0.16889 -1.50848,-0.22867 l -0.71366,-0.0842 c -0.59216,-0.0698 -1.13484,0.33584 -1.23602,0.92336 l -1.037844,6.03826 c -1.39878,-0.24062 -2.835823,-0.36766 -4.302308,-0.36766 h -4.189916 c -8.971088,0 -16.269588,7.2985 -16.269588,16.26959 0,0.61905 0.501731,1.12093 1.120937,1.12093 h 18.217778 v 2.95211 c 0,9.61824 5.396643,17.99897 13.320481,22.27557 v 6.94354 h -4.35642 c -0.91707,0 -1.73625,0.54746 -2.08718,1.39459 -0.35093,0.84713 -0.15873,1.81353 0.48977,2.46203 0.21836,0.21836 0.50353,0.32732 0.78884,0.32732 0.28652,0 0.57333,-0.10986 0.79273,-0.32926 0.43777,-0.43777 0.43388,-1.14934 -0.004,-1.5871 -4.5e-4,-0.008 0.006,-0.023 0.0196,-0.0256 h 5.47735 c 0.75746,0 1.46978,0.29503 2.00544,0.83069 l 0.18607,0.18608 c 0.21896,0.2188 0.50592,0.32836 0.79273,0.32836 0.28681,0 0.57377,-0.10941 0.79273,-0.32836 0.43776,-0.43777 0.43776,-1.14754 0,-1.58516 l -0.18623,-0.18622 c -0.68915,-0.68901 -1.54151,-1.15412 -2.46965,-1.36232 v -5.99791 c 2.99739,1.25411 6.28503,1.94819 9.73198,1.94819 h 6.40968 c 0.45704,0 0.8682,-0.27739 1.03933,-0.70111 0.17113,-0.42371 0.068,-0.909 -0.2608,-1.22645 z m -20.17599,-49.89593 c 0.56749,-1.371135 2.14488,-2.024567 3.51526,-1.457223 1.37039,0.567792 2.02352,2.144873 1.45603,3.515263 l -0.15111,0.36438 c -1.58396,-0.85102 -3.25625,-1.52478 -4.99146,-2.00872 z m -3.81657,1.94594 c 3.84183,0.51309 7.45663,2.00828 10.53144,4.35044 l -0.66973,0.94831 c -1.38682,-0.97895 -2.87109,-1.81502 -4.42949,-2.48699 -1.8074,-0.77897 -3.69686,-1.33257 -5.6304,-1.65809 z m -0.57795,3.36282 c 1.75912,0.29548 3.47819,0.799 5.12268,1.50773 1.41567,0.61039 2.76409,1.36979 4.02387,2.25922 l -1.27488,1.8053 c -2.43781,-1.74029 -5.19652,-3.05791 -8.16805,-3.8481 z m -10.981008,3.11934 h 3.068977 v 7.1205 c -8.372507,0.22389 -14.084806,2.91324 -16.909569,4.6347 1.089551,-6.65762 6.879567,-11.7552 13.840592,-11.7552 z m -11.303387,12.90693 c 0.496052,-0.25931 1.048451,-0.52819 1.657792,-0.79646 2.689502,-1.18401 7.021256,-2.5816 12.714572,-2.7469 v 3.54336 z m 16.650111,6.4708 c 3.259836,0.20655 6.381424,1.2828 9.089314,3.14849 3.02713,2.08569 5.31892,5.00372 6.62818,8.43887 l 3.78279,9.92045 C 105.49718,148.23206 97.234519,139.29923 96.634146,128.35918 Z m 23.016584,21.77564 c -0.34315,0 -0.68436,-0.009 -1.02393,-0.0239 L 114.44659,139.148 c -1.47171,-3.86141 -4.04822,-7.14172 -7.45109,-9.48627 -3.09379,-2.13173 -6.66779,-3.34608 -10.397224,-3.54964 l 1.49e-4,-17.10371 c 12.192965,0.58617 21.931375,10.68986 21.931375,23.02555 v 4.88923 c 0,4.83737 1.76226,9.55428 4.88803,13.21153 h -3.7671 z"
         id="path64"
         style="fill:#000000;fill-opacity:1;stroke:#ecf2e6;stroke-width:0.549;stroke-miterlimit:4;stroke-dasharray:none;stroke-opacity:1" />
    </g>
    <text
       xml:space="preserve"
       transform="matrix(0.26458333,0,0,0.26458333,9.9654567,-124.55236)"
       id="text87"
       style="font-style:normal;font-weight:normal;font-size:16px;line-height:125%;font-family:sans-serif;letter-spacing:0px;word-spacing:0px;white-space:pre;shape-inside:url(#rect87);display:inline;fill:#ecf2e6;fill-opacity:1;stroke:none;stroke-width:1px;stroke-linecap:butt;stroke-linejoin:miter;stroke-opacity:1"><tspan
         x="56.734375"
         y="349.558"
         id="tspan5"><tspan
           style="font-family:'Ink Free';-inkscape-font-specification:'Ink Free'"
           id="tspan4">test execution</tspan></tspan></text>
    <text
       xml:space="preserve"
       transform="matrix(0.26458333,0,0,0.26458333,41.715456,-124.55236)"
       id="text88"
       style="font-style:normal;font-weight:normal;font-size:16px;line-height:125%;font-family:sans-serif;letter-spacing:0px;word-spacing:0px;white-space:pre;shape-inside:url(#rect88);display:inline;fill:#ecf2e6;fill-opacity:1;stroke:none;stroke-width:1px;stroke-linecap:butt;stroke-linejoin:miter;stroke-opacity:1"><tspan
         x="56.734375"
         y="349.558"
         id="tspan7"><tspan
           style="font-family:'Ink Free';-inkscape-font-specification:'Ink Free'"
           id="tspan6">test execution</tspan></tspan></text>
    <text
       xml:space="preserve"
       transform="matrix(0.26458333,0,0,0.26458333,84.048795,-124.55236)"
       id="text89"
       style="font-style:normal;font-weight:normal;font-size:16px;line-height:125%;font-family:sans-serif;letter-spacing:0px;word-spacing:0px;white-space:pre;shape-inside:url(#rect89);display:inline;fill:#ecf2e6;fill-opacity:1;stroke:none;stroke-width:1px;stroke-linecap:butt;stroke-linejoin:miter;stroke-opacity:1"><tspan
         x="56.734375"
         y="349.558"
         id="tspan10"><tspan
           style="font-family:'Ink Free';-inkscape-font-specification:'Ink Free'"
           id="tspan8">...</tspan></tspan></text>
    <text
       xml:space="preserve"
       transform="matrix(0.26458333,0,0,0.26458333,133.79047,-124.55236)"
       id="text90"
       style="font-style:normal;font-weight:normal;font-size:16px;line-height:125%;font-family:sans-serif;letter-spacing:0px;word-spacing:0px;white-space:pre;shape-inside:url(#rect92);display:inline;fill:#ecf2e6;fill-opacity:1;stroke:none;stroke-width:1px;stroke-linecap:butt;stroke-linejoin:miter;stroke-opacity:1"><tspan
         x="56.734375"
         y="349.558"
         id="tspan14"><tspan
           style="font-family:'Ink Free';-inkscape-font-specification:'Ink Free'"
           id="tspan13">test suite</tspan></tspan></text>
    <text
       xml:space="preserve"
       transform="matrix(0.26458333,0,0,0.26458333,166.59885,-124.55236)"
       id="text91"
       style="font-style:normal;font-weight:normal;font-size:16px;line-height:125%;font-family:sans-serif;letter-spacing:0px;word-spacing:0px;white-space:pre;shape-inside:url(#rect93);display:inline;fill:#ecf2e6;fill-opacity:1;stroke:none;stroke-width:1px;stroke-linecap:butt;stroke-linejoin:miter;stroke-opacity:1"><tspan
         x="56.734375"
         y="349.558"
         id="tspan16"><tspan
           style="font-family:'Ink Free';-inkscape-font-specification:'Ink Free'"
           id="tspan15">test suite</tspan></tspan></text>
    <text
       xml:space="preserve"
       transform="matrix(0.26458333,0,0,0.26458333,206.28643,-124.55236)"
       id="text92"
       style="font-style:normal;font-weight:normal;font-size:16px;line-height:125%;font-family:sans-serif;letter-spacing:0px;word-spacing:0px;white-space:pre;shape-inside:url(#rect94);display:inline;fill:#ecf2e6;fill-opacity:1;stroke:none;stroke-width:1px;stroke-linecap:butt;stroke-linejoin:miter;stroke-opacity:1"><tspan
         x="56.734375"
         y="349.558"
         id="tspan18"><tspan
           style="font-family:'Ink Free';-inkscape-font-specification:'Ink Free'"
           id="tspan17">...</tspan></tspan></text>
    <text
       xml:space="preserve"
       id="text122"
       style="font-style:normal;font-weight:normal;font-size:32px;line-height:125%;font-family:sans-serif;letter-spacing:0px;word-spacing:0px;white-space:pre;shape-inside:url(#rect123);display:inline;fill:#131323;fill-opacity:1;stroke:none;stroke-width:0;stroke-linecap:butt;stroke-linejoin:miter;stroke-dasharray:none;stroke-opacity:1"
       x="141.76003"
       y="0"
       transform="matrix(0.44076113,0,0,0.44076113,83.427966,-96.330191)"><tspan
         x="56.734375"
         y="364.11601"
         id="tspan23"><tspan
           style="font-weight:bold;font-family:'Ink Free';-inkscape-font-specification:'Ink Free Bold'"
           id="tspan22">outlets</tspan></tspan></text>
  </g>
</svg>
