<?xml version="1.0" encoding="UTF-8" standalone="no"?>
<!-- Created with Inkscape (http://www.inkscape.org/) -->

<svg
   width="224.32515mm"
   height="201.46217mm"
   viewBox="0 0 224.32515 201.46218"
   version="1.1"
   id="svg5"
   inkscape:version="1.3 (0e150ed6c4, 2023-07-21)"
   sodipodi:docname="terminology.svg"
   inkscape:export-filename="terminology.png"
   inkscape:export-xdpi="115.94598"
   inkscape:export-ydpi="115.94598"
   xmlns:inkscape="http://www.inkscape.org/namespaces/inkscape"
   xmlns:sodipodi="http://sodipodi.sourceforge.net/DTD/sodipodi-0.dtd"
   xmlns:xlink="http://www.w3.org/1999/xlink"
   xmlns="http://www.w3.org/2000/svg"
   xmlns:svg="http://www.w3.org/2000/svg">
  <sodipodi:namedview
     id="namedview7"
     pagecolor="#ffffff"
     bordercolor="#666666"
     borderopacity="1.0"
     inkscape:pageshadow="2"
     inkscape:pageopacity="0.0"
     inkscape:pagecheckerboard="0"
     inkscape:document-units="mm"
     showgrid="false"
     showguides="true"
     inkscape:guide-bbox="true"
     inkscape:zoom="1.0469406"
     inkscape:cx="356.75375"
     inkscape:cy="500.02835"
     inkscape:window-width="1920"
     inkscape:window-height="1137"
     inkscape:window-x="-8"
     inkscape:window-y="-8"
     inkscape:window-maximized="1"
     inkscape:current-layer="layer1"
     fit-margin-top="0"
     fit-margin-left="0"
     fit-margin-right="0"
     fit-margin-bottom="0"
     inkscape:showpageshadow="2"
     inkscape:deskcolor="#d1d1d1" />
  <defs
     id="defs2">
    <rect
       x="56.733847"
       y="334.99986"
       width="224.23378"
       height="83.074562"
       id="rect87" />
    <marker
       style="overflow:visible"
       id="Arrow1Mstart"
       refX="0"
       refY="0"
       orient="auto"
       inkscape:stockid="Arrow1Mstart"
       inkscape:isstock="true">
      <path
         transform="matrix(0.4,0,0,0.4,4,0)"
         style="fill:context-stroke;fill-rule:evenodd;stroke:context-stroke;stroke-width:1pt"
         d="M 0,0 5,-5 -12.5,0 5,5 Z"
         id="path13627" />
    </marker>
    <marker
       style="overflow:visible"
       id="marker13891"
       refX="0"
       refY="0"
       orient="auto"
       inkscape:stockid="Arrow1Mend"
       inkscape:isstock="true">
      <path
         transform="matrix(-0.4,0,0,-0.4,-4,0)"
         style="fill:context-stroke;fill-rule:evenodd;stroke:context-stroke;stroke-width:1pt"
         d="M 0,0 5,-5 -12.5,0 5,5 Z"
         id="path13889" />
    </marker>
    <marker
       style="overflow:visible"
       id="Arrow1Mend"
       refX="0"
       refY="0"
       orient="auto"
       inkscape:stockid="Arrow1Mend"
       inkscape:isstock="true"
       viewBox="0 0 8.886927 5.078244"
       markerWidth="8.8869267"
       markerHeight="5.0782442"
       preserveAspectRatio="xMidYMid">
      <path
         transform="matrix(-0.4,0,0,-0.4,-4,0)"
         style="fill:context-stroke;fill-rule:evenodd;stroke:context-stroke;stroke-width:1pt"
         d="M 0,0 5,-5 -12.5,0 5,5 Z"
         id="path13630" />
    </marker>
    <linearGradient
       id="a"
       x1="9"
       y1="16.969999"
       x2="9"
       y2="1.03"
       gradientUnits="userSpaceOnUse"
       gradientTransform="matrix(1.303279,0,0,1.303279,21.200137,55.43066)">
      <stop
         offset="0"
         stop-color="#0078d4"
         id="stop868" />
      <stop
         offset=".16"
         stop-color="#1380da"
         id="stop870" />
      <stop
         offset=".53"
         stop-color="#3c91e5"
         id="stop872" />
      <stop
         offset=".82"
         stop-color="#559cec"
         id="stop874" />
      <stop
         offset="1"
         stop-color="#5ea0ef"
         id="stop876" />
    </linearGradient>
    <style
       id="style894">.cls-1{fill:#65c179;}.cls-2{fill:#f5f1e3;}</style>
    <linearGradient
       id="a-3"
       gradientUnits="userSpaceOnUse"
       x1="198.099"
       y1="1683.0726"
       x2="942.23438"
       y2="394.26071"
       gradientTransform="matrix(0.00996278,0,0,-0.00996278,83.908322,294.00906)">
      <stop
         offset="0"
         stop-color="#5a62c3"
         id="stop26" />
      <stop
         offset=".5"
         stop-color="#4d55bd"
         id="stop28" />
      <stop
         offset="1"
         stop-color="#3940ab"
         id="stop30" />
    </linearGradient>
    <style
       id="style7187">.cls-1{fill:#65c179;}.cls-2{fill:#f5f1e3;}</style>
    <linearGradient
       inkscape:collect="always"
       xlink:href="#a"
       id="linearGradient21"
       gradientUnits="userSpaceOnUse"
       gradientTransform="matrix(1.303279,0,0,1.303279,179.34303,-79.688176)"
       x1="9"
       y1="16.969999"
       x2="9"
       y2="1.03" />
    <linearGradient
       inkscape:collect="always"
       xlink:href="#a-3"
       id="linearGradient55"
       gradientUnits="userSpaceOnUse"
       gradientTransform="matrix(0.00996278,0,0,-0.00996278,179.15837,114.09228)"
       x1="198.099"
       y1="1683.0726"
       x2="942.23438"
       y2="394.26071" />
    <rect
       x="56.733847"
       y="334.99986"
       width="224.23378"
       height="83.074562"
       id="rect88" />
    <rect
       x="56.733847"
       y="334.99986"
       width="224.23378"
       height="83.074562"
       id="rect89" />
    <rect
       x="56.733847"
       y="334.99986"
       width="224.23378"
       height="83.074562"
       id="rect92" />
    <rect
       x="56.733847"
       y="334.99986"
       width="224.23378"
       height="83.074562"
       id="rect93" />
    <rect
       x="56.733847"
       y="334.99986"
       width="224.23378"
       height="83.074562"
       id="rect94" />
    <rect
       x="56.733847"
       y="334.99986"
       width="224.23378"
       height="83.074562"
       id="rect95" />
    <rect
       x="56.733847"
       y="334.99986"
       width="224.23378"
       height="83.074562"
       id="rect96" />
  </defs>
  <g
     inkscape:label="Ebene 1"
     inkscape:groupmode="layer"
     id="layer1"
     transform="translate(-17.772797,82.647127)">
    <path
       id="path78"
       style="color:#000000;fill:#131323;fill-opacity:1;fill-rule:evenodd;stroke:#ecf2e6;stroke-width:0.1;stroke-dasharray:none;stroke-opacity:1"
       d="m 36.773188,-42.218587 v 27.306344 h 88.793032 3.49798 v 7.138582 l -2.03864,-2.0386353 2.53886,8.8867961 2.53887,-8.8867961 -2.03864,2.0386353 v -7.138582 h 92.7871 v -27.306344 h -0.99994 v 26.306405 h -30.75006 v -26.306405 h -0.99994 v 26.306405 h -30.75006 v -26.306405 h -0.99994 v 26.306405 h -28.28716 -4.49843 -24.29258 v -26.306405 h -1.00045 v 26.306405 H 69.523643 v -26.306405 h -1.000455 v 26.306405 H 37.773643 v -26.306405 z"
       sodipodi:nodetypes="ccccccccccccccccccccccccccccccccccc" />
    <path
       id="path118"
       style="color:#000000;fill:#131323;fill-opacity:1;fill-rule:evenodd;stroke:#ecf2e6;stroke-width:0.1;stroke-dasharray:none;stroke-opacity:1"
       d="M 129.24196 41.919947 L 129.24196 52.349801 L 44.632656 52.349801 L 44.632656 57.841455 L 42.593504 55.80282 L 45.132884 64.689616 L 47.671747 55.80282 L 45.632595 57.841972 L 45.632595 53.34974 L 91.72849 53.34974 L 91.72849 57.841455 L 89.689338 55.80282 L 92.228717 64.689616 L 94.767581 55.80282 L 92.728429 57.841972 L 92.728429 53.34974 L 130.2481 53.34974 L 166.23247 53.34974 L 166.23247 57.841972 L 164.19332 55.80282 L 166.73218 64.689616 L 169.27156 55.80282 L 167.23241 57.841455 L 167.23241 53.34974 L 213.85747 53.34974 L 213.85747 57.841972 L 211.81832 55.80282 L 214.35718 64.689616 L 216.89656 55.80282 L 214.85741 57.841455 L 214.85741 52.349801 L 130.2481 52.349801 L 130.2481 41.919947 L 130.24242 41.919947 L 129.24196 41.919947 z " />
    <rect
       style="fill:#131323;fill-opacity:1;stroke:#ecf2e6;stroke-width:1.07584;stroke-linecap:butt;stroke-linejoin:round;stroke-opacity:1"
       id="rect5"
       width="101.54097"
       height="52.219662"
       x="18.31072"
       y="-82.109207" />
    <text
       xml:space="preserve"
       style="font-style:normal;font-weight:normal;font-size:7.07969px;line-height:1.25;font-family:sans-serif;letter-spacing:-0.283188px;fill:#ffffff;fill-opacity:1;stroke:none;stroke-width:0.176993"
       x="60.354221"
       y="-54.222775"
       id="text1"><tspan
         sodipodi:role="line"
         id="tspan1"
         x="60.354221"
         y="-54.222775"
         style="font-style:normal;font-variant:normal;font-weight:normal;font-stretch:normal;font-family:Arial;-inkscape-font-specification:Arial;fill:#ffffff;fill-opacity:1;stroke-width:0.176993">XRAY</tspan></text>
    <path
       style="fill:#2bb34b;fill-opacity:1;stroke:none;stroke-width:0.176993px;stroke-linecap:butt;stroke-linejoin:miter;stroke-opacity:1"
       d="m 64.901286,-68.205998 -0.03067,-5.704666 6.655443,-5.950026 -3.343055,6.103377 z"
       id="path1"
       sodipodi:nodetypes="ccccc" />
    <path
       style="fill:#2bb34b;fill-opacity:0.8;stroke:none;stroke-width:0.176993px;stroke-linecap:butt;stroke-linejoin:miter;stroke-opacity:1"
       d="m 69.225788,-69.248787 -4.324502,1.042789 3.281717,-5.551315 3.404397,0.03067 2.177588,3.312386 z"
       id="path3"
       sodipodi:nodetypes="cccccc" />
    <path
       style="fill:#2cb34c;fill-opacity:0.501961;stroke:none;stroke-width:0.176993px;stroke-linecap:butt;stroke-linejoin:miter;stroke-opacity:1"
       d="m 67.048204,-60.96782 2.177584,-8.280967 4.5392,-1.165469 z"
       id="path5"
       sodipodi:nodetypes="cccc" />
    <rect
       style="fill:#131323;fill-opacity:1;stroke:#ecf2e6;stroke-width:0.529167;stroke-linecap:butt;stroke-linejoin:round;stroke-dasharray:none;stroke-opacity:1"
       id="rect6"
       width="24.481514"
       height="13.533793"
       x="25.083015"
       y="-49.562458" />
    <rect
       style="fill:#131323;fill-opacity:1;stroke:#ecf2e6;stroke-width:0.529167;stroke-linecap:butt;stroke-linejoin:round;stroke-dasharray:none;stroke-opacity:1"
       id="rect7"
       width="24.481514"
       height="13.533793"
       x="56.833023"
       y="-49.562458"
       inkscape:connector-avoid="true" />
    <rect
       style="fill:#131323;fill-opacity:1;stroke:#ecf2e6;stroke-width:0.529167;stroke-linecap:butt;stroke-linejoin:round;stroke-dasharray:none;stroke-opacity:1"
       id="rect8"
       width="24.481514"
       height="13.533793"
       x="88.583008"
       y="-49.562458"
       inkscape:connector-avoid="true" />
    <text
       xml:space="preserve"
       style="font-style:normal;font-weight:normal;font-size:4.93889px;line-height:125%;font-family:sans-serif;letter-spacing:0px;word-spacing:0px;fill:#ecf2e6;fill-opacity:1;stroke:none;stroke-width:0.264583px;stroke-linecap:butt;stroke-linejoin:miter;stroke-opacity:1"
       x="27.471754"
       y="-41.097904"
       id="text9"><tspan
         sodipodi:role="line"
         id="tspan9"
         style="font-style:normal;font-variant:normal;font-weight:bold;font-stretch:normal;font-size:4.93889px;font-family:Sans;-inkscape-font-specification:'Sans Bold';fill:#ecf2e6;fill-opacity:1;stroke-width:0.264583px"
         x="27.471754"
         y="-41.097904">ABC-123</tspan></text>
    <text
       xml:space="preserve"
       style="font-style:normal;font-weight:normal;font-size:4.93889px;line-height:125%;font-family:sans-serif;letter-spacing:0px;word-spacing:0px;fill:#ecf2e6;fill-opacity:1;stroke:none;stroke-width:0.264583px;stroke-linecap:butt;stroke-linejoin:miter;stroke-opacity:1"
       x="59.348122"
       y="-41.097904"
       id="text11"><tspan
         sodipodi:role="line"
         id="tspan11"
         style="font-style:normal;font-variant:normal;font-weight:bold;font-stretch:normal;font-size:4.93889px;font-family:Sans;-inkscape-font-specification:'Sans Bold';fill:#ecf2e6;fill-opacity:1;stroke-width:0.264583px"
         x="59.348122"
         y="-41.097904">ABC-456</tspan></text>
    <text
       xml:space="preserve"
       style="font-style:normal;font-weight:normal;font-size:4.93889px;line-height:125%;font-family:sans-serif;letter-spacing:0px;word-spacing:0px;fill:#ecf2e6;fill-opacity:1;stroke:none;stroke-width:0.264583px;stroke-linecap:butt;stroke-linejoin:miter;stroke-opacity:1"
       x="92.030083"
       y="-41.097904"
       id="text12"><tspan
         sodipodi:role="line"
         id="tspan12"
         style="font-style:normal;font-variant:normal;font-weight:bold;font-stretch:normal;font-size:4.93889px;font-family:Sans;-inkscape-font-specification:'Sans Bold';fill:#ecf2e6;fill-opacity:1;stroke-width:0.264583px"
         x="92.030083"
         y="-41.097904">PRJ-789</tspan></text>
    <rect
       style="fill:#131323;fill-opacity:1;stroke:#ecf2e6;stroke-width:1.07584;stroke-linecap:butt;stroke-linejoin:round;stroke-opacity:1"
       id="rect12"
       width="101.54097"
       height="52.219662"
       x="140.01906"
       y="-82.109207" />
    <rect
       style="fill:#131323;fill-opacity:1;stroke:#ecf2e6;stroke-width:0.529167;stroke-linecap:butt;stroke-linejoin:round;stroke-dasharray:none;stroke-opacity:1"
       id="rect17"
       width="24.481514"
       height="13.533793"
       x="146.79132"
       y="-49.562458" />
    <rect
       style="fill:#131323;fill-opacity:1;stroke:#ecf2e6;stroke-width:0.529167;stroke-linecap:butt;stroke-linejoin:round;stroke-dasharray:none;stroke-opacity:1"
       id="rect18"
       width="24.481514"
       height="13.533793"
       x="178.54138"
       y="-49.562458" />
    <rect
       style="fill:#131323;fill-opacity:1;stroke:#ecf2e6;stroke-width:0.529167;stroke-linecap:butt;stroke-linejoin:round;stroke-dasharray:none;stroke-opacity:1"
       id="rect19"
       width="24.481514"
       height="13.533793"
       x="210.29138"
       y="-49.562458" />
    <text
       xml:space="preserve"
       style="font-style:normal;font-weight:normal;font-size:4.93889px;line-height:125%;font-family:sans-serif;letter-spacing:0px;word-spacing:0px;fill:#ecf2e6;fill-opacity:1;stroke:none;stroke-width:0.264583px;stroke-linecap:butt;stroke-linejoin:miter;stroke-opacity:1"
       x="150.2384"
       y="-41.097904"
       id="text19"><tspan
         sodipodi:role="line"
         id="tspan19"
         style="font-style:normal;font-variant:normal;font-weight:bold;font-stretch:normal;font-size:4.93889px;font-family:Sans;-inkscape-font-specification:'Sans Bold';fill:#ecf2e6;fill-opacity:1;stroke-width:0.264583px"
         x="150.2384"
         y="-41.097904">#12345</tspan></text>
    <text
       xml:space="preserve"
       style="font-style:normal;font-weight:normal;font-size:4.93889px;line-height:125%;font-family:sans-serif;letter-spacing:0px;word-spacing:0px;fill:#ecf2e6;fill-opacity:1;stroke:none;stroke-width:0.264583px;stroke-linecap:butt;stroke-linejoin:miter;stroke-opacity:1"
       x="182.64395"
       y="-41.097904"
       id="text20"><tspan
         sodipodi:role="line"
         id="tspan20"
         style="font-style:normal;font-variant:normal;font-weight:bold;font-stretch:normal;font-size:4.93889px;font-family:Sans;-inkscape-font-specification:'Sans Bold';fill:#ecf2e6;fill-opacity:1;stroke-width:0.264583px"
         x="182.64395"
         y="-41.097904">#54321</tspan></text>
    <text
       xml:space="preserve"
       style="font-style:normal;font-weight:normal;font-size:4.93889px;line-height:125%;font-family:sans-serif;letter-spacing:0px;word-spacing:0px;fill:#ecf2e6;fill-opacity:1;stroke:none;stroke-width:0.264583px;stroke-linecap:butt;stroke-linejoin:miter;stroke-opacity:1"
       x="213.73849"
       y="-41.097904"
       id="text21"><tspan
         sodipodi:role="line"
         id="tspan21"
         style="font-style:normal;font-variant:normal;font-weight:bold;font-stretch:normal;font-size:4.93889px;font-family:Sans;-inkscape-font-specification:'Sans Bold';fill:#ecf2e6;fill-opacity:1;stroke-width:0.264583px"
         x="213.73849"
         y="-41.097904">#22694</tspan></text>
    <path
       d="m 201.49876,-74.475076 v 12.69393 l -5.21312,4.27478 -8.08032,-2.94541 v 2.91931 l -4.57451,-5.98202 13.33254,1.04259 v -11.42972 z m -4.44418,0.63862 -7.48082,-4.54846 v 2.98453 l -6.86828,2.02006 -2.05918,2.64569 v 6.00807 l 2.94541,1.30331 v -7.70239 z"
       fill="url(#a)"
       id="path21"
       style="fill:url(#linearGradient21);stroke-width:1.30328" />
    <rect
       style="fill:#131323;fill-opacity:1;stroke:#ecf2e6;stroke-width:1.07584;stroke-linecap:butt;stroke-linejoin:round;stroke-opacity:1"
       id="rect24"
       width="101.54097"
       height="52.219662"
       x="18.310717"
       y="66.057465" />
    <rect
       style="fill:#131323;fill-opacity:1;stroke:#ecf2e6;stroke-width:0.529167;stroke-linecap:butt;stroke-linejoin:round;stroke-dasharray:none;stroke-opacity:1"
       id="rect27"
       width="43.599491"
       height="13.445013"
       x="23.010733"
       y="72.190269" />
    <text
       xml:space="preserve"
       style="font-style:normal;font-weight:normal;font-size:4.93889px;line-height:125%;font-family:sans-serif;letter-spacing:0px;word-spacing:0px;fill:#ecf2e6;fill-opacity:1;stroke:none;stroke-width:0.264583px;stroke-linecap:butt;stroke-linejoin:miter;stroke-opacity:1"
       x="25.355085"
       y="80.610428"
       id="text29"><tspan
         sodipodi:role="line"
         id="tspan29"
         style="font-style:normal;font-variant:normal;font-weight:bold;font-stretch:normal;font-size:4.93889px;font-family:Sans;-inkscape-font-specification:'Sans Bold';fill:#ecf2e6;fill-opacity:1;stroke-width:0.264583px"
         x="25.355085"
         y="80.610428">#tester-channel</tspan></text>
    <path
       d="m 59.66613,105.98867 0.578756,-1.34421 c 0.62543,0.46674 1.456227,0.70945 2.27769,0.70945 0.606761,0 0.989487,-0.23338 0.989487,-0.5881 -0.0093,-0.98949 -3.631234,-0.2147 -3.659239,-2.69775 -0.0093,-1.26019 1.110842,-2.231007 2.697755,-2.231007 0.942814,0 1.885627,0.233357 2.557733,0.765437 l -0.541418,1.37222 c -0.616096,-0.39206 -1.381549,-0.67211 -2.109663,-0.67211 -0.494744,0 -0.821461,0.23337 -0.821461,0.53208 0.0093,0.97082 3.659238,0.43874 3.696576,2.80978 0,1.2882 -1.09217,2.19367 -2.660414,2.19367 -1.14818,0 -2.20301,-0.2707 -3.005802,-0.84946 m 22.207466,-1.82962 c -0.289379,0.50408 -0.830797,0.84945 -1.456227,0.84945 -0.924144,0 -1.670929,-0.74677 -1.670929,-1.67092 0,-0.92415 0.746785,-1.67092 1.670929,-1.67092 0.62543,0 1.166848,0.34539 1.456227,0.84947 l 1.596248,-0.88681 c -0.597425,-1.06417 -1.745606,-1.792267 -3.052475,-1.792267 -1.932303,0 -3.500547,1.568237 -3.500547,3.500527 0,1.9323 1.568244,3.50055 3.500547,3.50055 1.316205,0 2.45505,-0.71878 3.052475,-1.79227 z M 66.135138,96.933923 h 1.997646 v 9.773517 h -1.997646 z m 18.118829,0 v 9.773517 h 1.997644 v -2.93112 l 2.371038,2.93112 h 2.557733 l -3.015137,-3.48187 2.791103,-3.248507 h -2.445716 l -2.259021,2.697747 V 96.933923 Z M 74.06971,104.17772 c -0.289377,0.47607 -0.886805,0.83078 -1.558908,0.83078 -0.924145,0 -1.670929,-0.74677 -1.670929,-1.67092 0,-0.92415 0.746784,-1.67092 1.670929,-1.67092 0.672103,0 1.269531,0.37339 1.558908,0.8588 z m 0,-4.200657 v 0.793447 c -0.326717,-0.55075 -1.138843,-0.933457 -1.988309,-0.933457 -1.754941,0 -3.136489,1.549567 -3.136489,3.491197 0,1.94163 1.381548,3.50988 3.136489,3.50988 0.849466,0 1.661592,-0.38273 1.988309,-0.93348 v 0.79346 h 1.997646 v -6.721047 z"
       fill="#000000"
       id="path32"
       style="fill:#ffffff;fill-opacity:1;stroke-width:0.0933477" />
    <path
       d="m 47.316201,104.16838 c 0,0.68145 -0.550752,1.2322 -1.232193,1.2322 -0.68144,0 -1.232192,-0.55075 -1.232192,-1.2322 0,-0.68143 0.550752,-1.23219 1.232192,-1.23219 h 1.232193 z m 0.616096,0 c 0,-0.68143 0.550753,-1.23219 1.232192,-1.23219 0.68144,0 1.232193,0.55076 1.232193,1.23219 v 3.08048 c 0,0.68144 -0.550753,1.2322 -1.232193,1.2322 -0.681439,0 -1.232192,-0.55076 -1.232192,-1.2322 z"
       fill="#e01e5a"
       id="path34"
       style="stroke-width:0.0933477" />
    <path
       d="m 49.164489,99.220943 c -0.681439,0 -1.232192,-0.55075 -1.232192,-1.23219 0,-0.68144 0.550753,-1.2322 1.232192,-1.2322 0.68144,0 1.232193,0.55076 1.232193,1.2322 v 1.23219 z m 0,0.62543 c 0.68144,0 1.232193,0.550757 1.232193,1.232197 0,0.68143 -0.550753,1.23218 -1.232193,1.23218 h -3.089815 c -0.68144,0 -1.232193,-0.55075 -1.232193,-1.23218 0,-0.68144 0.550753,-1.232197 1.232193,-1.232197 z"
       fill="#36c5f0"
       id="path36"
       style="stroke-width:0.0933477" />
    <path
       d="m 54.102594,101.07857 c 0,-0.68144 0.550753,-1.232197 1.232193,-1.232197 0.681439,0 1.232192,0.550757 1.232192,1.232197 0,0.68143 -0.550753,1.23218 -1.232192,1.23218 h -1.232193 z m -0.616096,0 c 0,0.68143 -0.550752,1.23218 -1.232193,1.23218 -0.681439,0 -1.232191,-0.55075 -1.232191,-1.23218 v -3.089817 c 0,-0.68144 0.550752,-1.2322 1.232191,-1.2322 0.681441,0 1.232193,0.55076 1.232193,1.2322 z"
       fill="#2eb67d"
       id="path37"
       style="stroke-width:0.0933477" />
    <path
       d="m 52.254305,106.01667 c 0.681441,0 1.232193,0.55076 1.232193,1.23219 0,0.68144 -0.550752,1.2322 -1.232193,1.2322 -0.681439,0 -1.232191,-0.55076 -1.232191,-1.2322 v -1.23219 z m 0,-0.61609 c -0.681439,0 -1.232191,-0.55075 -1.232191,-1.2322 0,-0.68143 0.550752,-1.23219 1.232191,-1.23219 h 3.089817 c 0.681439,0 1.232191,0.55076 1.232191,1.23219 0,0.68145 -0.550752,1.2322 -1.232191,1.2322 z"
       fill="#ecb22e"
       id="path38"
       style="stroke-width:0.0933477" />
    <rect
       style="fill:#131323;fill-opacity:1;stroke:#ecf2e6;stroke-width:0.529167;stroke-linecap:butt;stroke-linejoin:round;stroke-dasharray:none;stroke-opacity:1"
       id="rect38"
       width="43.599491"
       height="13.445013"
       x="70.635735"
       y="72.190269" />
    <text
       xml:space="preserve"
       style="font-style:normal;font-weight:normal;font-size:4.93889px;line-height:125%;font-family:sans-serif;letter-spacing:0px;word-spacing:0px;fill:#ecf2e6;fill-opacity:1;stroke:none;stroke-width:0.264583px;stroke-linecap:butt;stroke-linejoin:miter;stroke-opacity:1"
       x="76.15509"
       y="80.610428"
       id="text38"><tspan
         sodipodi:role="line"
         id="tspan38"
         style="font-style:normal;font-variant:normal;font-weight:bold;font-stretch:normal;font-size:4.93889px;font-family:Sans;-inkscape-font-specification:'Sans Bold';fill:#ecf2e6;fill-opacity:1;stroke-width:0.264583px"
         x="76.15509"
         y="80.610428">#project-lead</tspan></text>
    <rect
       style="fill:#131323;fill-opacity:1;stroke:#ecf2e6;stroke-width:1.07584;stroke-linecap:butt;stroke-linejoin:round;stroke-opacity:1"
       id="rect39"
       width="101.54097"
       height="52.219662"
       x="140.01906"
       y="66.057465" />
    <rect
       style="fill:#131323;fill-opacity:1;stroke:#ecf2e6;stroke-width:0.529167;stroke-linecap:butt;stroke-linejoin:round;stroke-dasharray:none;stroke-opacity:1"
       id="rect40"
       width="43.599491"
       height="13.445013"
       x="144.71907"
       y="72.190269" />
    <text
       xml:space="preserve"
       style="font-style:normal;font-weight:normal;font-size:4.93889px;line-height:125%;font-family:sans-serif;letter-spacing:0px;word-spacing:0px;fill:#ecf2e6;fill-opacity:1;stroke:none;stroke-width:0.264583px;stroke-linecap:butt;stroke-linejoin:miter;stroke-opacity:1"
       x="147.06343"
       y="80.610428"
       id="text40"><tspan
         sodipodi:role="line"
         id="tspan40"
         style="font-style:normal;font-variant:normal;font-weight:bold;font-stretch:normal;font-size:4.93889px;font-family:Sans;-inkscape-font-specification:'Sans Bold';fill:#ecf2e6;fill-opacity:1;stroke-width:0.264583px"
         x="147.06343"
         y="80.610428">Quality Channel</tspan></text>
    <rect
       style="fill:#131323;fill-opacity:1;stroke:#ecf2e6;stroke-width:0.529167;stroke-linecap:butt;stroke-linejoin:round;stroke-dasharray:none;stroke-opacity:1"
       id="rect44"
       width="43.599491"
       height="13.445013"
       x="192.34412"
       y="72.190269" />
    <text
       xml:space="preserve"
       style="font-style:normal;font-weight:normal;font-size:4.93889px;line-height:125%;font-family:sans-serif;letter-spacing:0px;word-spacing:0px;fill:#ecf2e6;fill-opacity:1;stroke:none;stroke-width:0.264583px;stroke-linecap:butt;stroke-linejoin:miter;stroke-opacity:1"
       x="196.80516"
       y="80.610428"
       id="text44"><tspan
         sodipodi:role="line"
         id="tspan44"
         style="font-style:normal;font-variant:normal;font-weight:bold;font-stretch:normal;font-size:4.93889px;font-family:Sans;-inkscape-font-specification:'Sans Bold';fill:#ecf2e6;fill-opacity:1;stroke-width:0.264583px"
         x="196.80516"
         y="80.610428">Tiger Team 🐅</tspan></text>
    <path
       fill="#5059c9"
       d="m 194.64683,101.16225 h 5.7357 c 0.54189,0 0.98117,0.43928 0.98117,0.98116 0,0 0,0 0,0 v 5.22447 c 0,1.99156 -1.61448,3.60604 -3.60605,3.60604 v 0 h -0.017 c -1.99157,2.7e-4 -3.60627,-1.61396 -3.60656,-3.60554 0,-1.8e-4 0,-3.3e-4 0,-4.1e-4 v -5.69282 c 0,-0.28321 0.22959,-0.51279 0.51279,-0.51279 z"
       id="path44"
       style="stroke-width:0.00996278" />
    <circle
       fill="#5059c9"
       cx="198.52356"
       cy="97.805695"
       r="2.3238192"
       id="circle44"
       style="stroke-width:0.00996278" />
    <circle
       fill="#7b83eb"
       cx="191.29385"
       cy="96.772873"
       r="3.3566308"
       id="circle45"
       style="stroke-width:0.00996278" />
    <path
       fill="#7b83eb"
       d="m 195.7695,101.16225 h -9.46775 c -0.53543,0.0132 -0.95898,0.4576 -0.94656,0.99305 v 5.95879 c -0.0748,3.21318 2.46734,5.87964 5.68043,5.95827 3.2131,-0.0786 5.75521,-2.74509 5.68045,-5.95827 v -5.95879 c 0.0124,-0.53545 -0.41115,-0.9798 -0.94657,-0.99305 z"
       id="path45"
       style="stroke-width:0.00996278" />
    <path
       opacity="0.1"
       d="m 191.55202,101.16225 v 8.35025 c -0.003,0.38293 -0.23461,0.72693 -0.5887,0.87273 -0.11274,0.0477 -0.23391,0.0723 -0.35632,0.0723 h -4.79738 c -0.0671,-0.17041 -0.1291,-0.34082 -0.18074,-0.5164 -0.18077,-0.59255 -0.273,-1.20855 -0.2737,-1.82807 v -5.95931 c -0.0125,-0.53458 0.41044,-0.97824 0.94501,-0.99149 z"
       id="path46"
       style="stroke-width:0.00996278" />
    <path
       opacity="0.2"
       d="m 191.03562,101.16225 v 8.86666 c 0,0.12241 -0.0246,0.24357 -0.0723,0.35632 -0.14579,0.35408 -0.48981,0.58614 -0.87272,0.58869 h -4.03827 c -0.0878,-0.17041 -0.17041,-0.34082 -0.24271,-0.5164 -0.0723,-0.17557 -0.1291,-0.34082 -0.18075,-0.5164 -0.18076,-0.59254 -0.273,-1.20855 -0.27369,-1.82807 v -5.95931 c -0.0125,-0.53458 0.41044,-0.97824 0.94501,-0.99149 z"
       id="path47"
       style="stroke-width:0.00996278" />
    <path
       opacity="0.2"
       d="m 191.03562,101.16225 v 7.83386 c -0.004,0.52028 -0.42473,0.94108 -0.94502,0.94501 h -4.46172 c -0.18075,-0.59254 -0.27299,-1.20855 -0.27369,-1.82807 v -5.95931 c -0.0124,-0.53458 0.41044,-0.97824 0.94501,-0.99149 z"
       id="path48"
       style="stroke-width:0.00996278" />
    <path
       opacity="0.2"
       d="m 190.51921,101.16225 v 7.83386 c -0.004,0.52028 -0.42473,0.94108 -0.94502,0.94501 h -3.94531 c -0.18075,-0.59254 -0.27299,-1.20855 -0.27369,-1.82807 v -5.95931 c -0.0124,-0.53458 0.41044,-0.97824 0.94501,-0.99149 z"
       id="path49"
       style="stroke-width:0.00996278" />
    <path
       opacity="0.1"
       d="m 191.55202,98.492453 v 1.626657 c -0.0878,0.005 -0.17041,0.0103 -0.2582,0.0103 -0.0878,0 -0.17042,-0.005 -0.25821,-0.0103 -0.17431,-0.0115 -0.34719,-0.0392 -0.5164,-0.0826 -1.04573,-0.247637 -1.90965,-0.981017 -2.32382,-1.972657 -0.0713,-0.16652 -0.12658,-0.33944 -0.16525,-0.5164 h 2.57685 c 0.52111,0.002 0.94305,0.42391 0.94503,0.94502 z"
       id="path50"
       style="stroke-width:0.00996278" />
    <path
       opacity="0.2"
       d="m 191.03562,99.008843 v 1.110267 c -0.17431,-0.0115 -0.34718,-0.0392 -0.5164,-0.0826 -1.04572,-0.247637 -1.90965,-0.981017 -2.32381,-1.972657 h 1.89519 c 0.52109,0.002 0.94304,0.42392 0.94502,0.94501 z"
       id="path51"
       style="stroke-width:0.00996278" />
    <path
       opacity="0.2"
       d="m 191.03562,99.008843 v 1.110267 c -0.17431,-0.0115 -0.34718,-0.0392 -0.5164,-0.0826 -1.04572,-0.247637 -1.90965,-0.981017 -2.32381,-1.972657 h 1.89519 c 0.52109,0.002 0.94304,0.42392 0.94502,0.94501 z"
       id="path52"
       style="stroke-width:0.00996278" />
    <path
       opacity="0.2"
       d="m 190.51921,99.008843 v 1.027647 c -1.04573,-0.247647 -1.90965,-0.981027 -2.32382,-1.972667 h 1.3788 c 0.5211,0.002 0.94303,0.42393 0.94502,0.94502 z"
       id="path53"
       style="stroke-width:0.00996278" />
    <path
       fill="url(#a)"
       d="m 180.10493,98.063823 h 9.4677 c 0.52278,0 0.94657,0.4238 0.94657,0.94657 v 9.467737 c 0,0.52279 -0.42379,0.94658 -0.94657,0.94658 h -9.4677 c -0.52278,0 -0.94656,-0.42381 -0.94656,-0.94658 v -9.467737 c 0,-0.52277 0.4238,-0.94657 0.94656,-0.94657 z"
       id="path54"
       style="fill:url(#linearGradient55);stroke-width:0.00996278" />
    <path
       fill="#ffffff"
       d="m 187.32991,101.66729 h -1.89262 v 5.15372 h -1.20579 v -5.15372 h -1.88383 v -0.99975 h 4.98224 z"
       id="path55"
       style="stroke-width:0.00996278" />
    <g
       id="g64"
       transform="matrix(0.64635462,0,0,0.64635462,59.678002,-61.747011)">
      <path
         style="fill:#ecf2e6;fill-opacity:1;stroke:none;stroke-width:0.0797945px;stroke-linecap:butt;stroke-linejoin:miter;stroke-opacity:1"
         d="m 98.948268,117.20916 0.896254,2.36285 2.851718,0.89625 2.7974,-1.14068 0.0272,-3.04183 -2.28138,-2.25422 -3.503535,0.89626 z"
         id="path56" />
      <path
         id="path57"
         style="fill:#627d77;fill-opacity:1;stroke:none;stroke-width:0.0797945px;stroke-linecap:butt;stroke-linejoin:miter;stroke-opacity:1"
         d="m 95.645509,108.40281 -0.03834,18.93562 4.536131,0.76163 7.93052,3.63922 4.56262,6.40959 3.4427,7.39533 1.80519,5.91493 7.57129,-0.0566 -2.71582,-4.18251 -3.04186,-7.7675 0.16287,-6.19233 -1.30352,-9.45129 -4.39992,-7.0615 -4.72564,-4.454 -7.65887,-3.53075 z m 6.680921,4.13841 c 2.57307,0 4.66642,2.09335 4.66642,4.66642 0,2.57308 -2.09335,4.66642 -4.66642,4.66642 -2.573076,0 -4.666421,-2.09335 -4.666421,-4.66642 0,-2.57307 2.093345,-4.66642 4.666421,-4.66642 z"
         sodipodi:nodetypes="ccccccccccccccccsssss" />
      <path
         style="fill:#d0e18e;fill-opacity:1;stroke:none;stroke-width:0.0797945px;stroke-linecap:butt;stroke-linejoin:miter;stroke-opacity:1"
         d="m 95.607114,127.33836 0.72977,7.91224 4.340206,7.10565 6.18384,5.56929 11.02335,3.53362 -1.80522,-5.91497 -4.64747,-10.60086 -5.49248,-4.68589 -8.10428,-2.84226 z"
         id="path58" />
      <path
         style="fill:#8c1039;fill-opacity:1;stroke:none;stroke-width:0.0797945px;stroke-linecap:butt;stroke-linejoin:miter;stroke-opacity:1"
         d="m 76.402658,122.26839 1.613174,-7.06724 5.492474,-5.64611 9.52541,-1.68999 2.611808,0.53772 -0.460909,9.25655 -6.644741,0.19204 -7.989054,2.07408 z"
         id="path59" />
      <path
         d="m 102.32642,112.54125 c -2.573078,0 -4.666392,2.09332 -4.666392,4.66639 0,2.57308 2.093314,4.66639 4.666392,4.66639 2.57307,0 4.66639,-2.09331 4.66639,-4.66639 0,-2.57307 -2.09332,-4.66639 -4.66639,-4.66639 z m 0,7.09091 c -1.33676,0 -2.424516,-1.08761 -2.424516,-2.42452 0,-1.3369 1.087606,-2.42451 2.424516,-2.42451 1.3369,0 2.42451,1.08761 2.42451,2.42451 0,1.33691 -1.08761,2.42452 -2.42451,2.42452 z"
         id="path60"
         style="fill:#1f1f39;fill-opacity:1;stroke-width:0.149458" />
      <path
         d="m 101.65864,116.3073 c -0.39099,0.28936 -0.5524,0.81963 -0.38725,1.27757 0.15917,0.4418 0.58588,0.74296 1.05563,0.74296 0.52041,0 0.97611,-0.36991 1.09224,-0.87448 0.22807,-0.99121 -0.94592,-1.74911 -1.76062,-1.14605 z"
         id="path61"
         style="fill:#1f1f39;fill-opacity:1;stroke-width:0.149458" />
      <path
         style="fill:#580a24;fill-opacity:1;stroke:none;stroke-width:0.0797945px;stroke-linecap:butt;stroke-linejoin:miter;stroke-opacity:1"
         d="m 77.492498,122.7768 6.952756,-4.29116 10.739361,-0.82632 -0.03863,5.49771 z"
         id="path62" />
      <path
         id="path63"
         style="fill:#ecf2e6;fill-opacity:1;stroke:none;stroke-width:0.0797945px;stroke-linecap:butt;stroke-linejoin:miter;stroke-opacity:1"
         d="m 110.04889,98.14766 -3.61039,0.729684 -1.49802,2.880706 2.70008,1.1377 -5.35029,-1.21453 -1.65152,6.79843 9.75581,4.4554 4.53224,-6.14543 -5.24883,-3.03546 2.09928,0.8846 1.11385,-1.65169 -0.49934,-3.187881 z" />
      <path
         d="m 126.83894,150.44928 -0.54882,-0.52983 v 0 c -3.50704,-3.38509 -5.51845,-8.12202 -5.51845,-12.99616 v -4.88938 c 0,-7.68126 -3.44247,-14.57264 -8.86467,-19.21556 l 3.91117,-5.53848 c 0.33658,-0.47647 0.25139,-1.1317 -0.19624,-1.50609 -0.70335,-0.58872 -1.43599,-1.13424 -2.1936,-1.63672 l 0.2768,-0.66793 c 1.04023,-2.51269 -0.15708,-5.403668 -2.66933,-6.444496 -2.51314,-1.04023 -5.40396,0.157828 -6.44434,2.670821 l -0.31611,0.763135 c -0.49934,-0.0904 -1.00182,-0.16889 -1.50848,-0.22867 l -0.71366,-0.0842 c -0.59216,-0.0698 -1.13484,0.33584 -1.23602,0.92336 l -1.037844,6.03826 c -1.39878,-0.24062 -2.835823,-0.36766 -4.302308,-0.36766 h -4.189916 c -8.971088,0 -16.269588,7.2985 -16.269588,16.26959 0,0.61905 0.501731,1.12093 1.120937,1.12093 h 18.217778 v 2.95211 c 0,9.61824 5.396643,17.99897 13.320481,22.27557 v 6.94354 h -4.35642 c -0.91707,0 -1.73625,0.54746 -2.08718,1.39459 -0.35093,0.84713 -0.15873,1.81353 0.48977,2.46203 0.21836,0.21836 0.50353,0.32732 0.78884,0.32732 0.28652,0 0.57333,-0.10986 0.79273,-0.32926 0.43777,-0.43777 0.43388,-1.14934 -0.004,-1.5871 -4.5e-4,-0.008 0.006,-0.023 0.0196,-0.0256 h 5.47735 c 0.75746,0 1.46978,0.29503 2.00544,0.83069 l 0.18607,0.18608 c 0.21896,0.2188 0.50592,0.32836 0.79273,0.32836 0.28681,0 0.57377,-0.10941 0.79273,-0.32836 0.43776,-0.43777 0.43776,-1.14754 0,-1.58516 l -0.18623,-0.18622 c -0.68915,-0.68901 -1.54151,-1.15412 -2.46965,-1.36232 v -5.99791 c 2.99739,1.25411 6.28503,1.94819 9.73198,1.94819 h 6.40968 c 0.45704,0 0.8682,-0.27739 1.03933,-0.70111 0.17113,-0.42371 0.068,-0.909 -0.2608,-1.22645 z m -20.17599,-49.89593 c 0.56749,-1.371135 2.14488,-2.024567 3.51526,-1.457223 1.37039,0.567792 2.02352,2.144873 1.45603,3.515263 l -0.15111,0.36438 c -1.58396,-0.85102 -3.25625,-1.52478 -4.99146,-2.00872 z m -3.81657,1.94594 c 3.84183,0.51309 7.45663,2.00828 10.53144,4.35044 l -0.66973,0.94831 c -1.38682,-0.97895 -2.87109,-1.81502 -4.42949,-2.48699 -1.8074,-0.77897 -3.69686,-1.33257 -5.6304,-1.65809 z m -0.57795,3.36282 c 1.75912,0.29548 3.47819,0.799 5.12268,1.50773 1.41567,0.61039 2.76409,1.36979 4.02387,2.25922 l -1.27488,1.8053 c -2.43781,-1.74029 -5.19652,-3.05791 -8.16805,-3.8481 z m -10.981008,3.11934 h 3.068977 v 7.1205 c -8.372507,0.22389 -14.084806,2.91324 -16.909569,4.6347 1.089551,-6.65762 6.879567,-11.7552 13.840592,-11.7552 z m -11.303387,12.90693 c 0.496052,-0.25931 1.048451,-0.52819 1.657792,-0.79646 2.689502,-1.18401 7.021256,-2.5816 12.714572,-2.7469 v 3.54336 z m 16.650111,6.4708 c 3.259836,0.20655 6.381424,1.2828 9.089314,3.14849 3.02713,2.08569 5.31892,5.00372 6.62818,8.43887 l 3.78279,9.92045 C 105.49718,148.23206 97.234519,139.29923 96.634146,128.35918 Z m 23.016584,21.77564 c -0.34315,0 -0.68436,-0.009 -1.02393,-0.0239 L 114.44659,139.148 c -1.47171,-3.86141 -4.04822,-7.14172 -7.45109,-9.48627 -3.09379,-2.13173 -6.66779,-3.34608 -10.397224,-3.54964 l 1.49e-4,-17.10371 c 12.192965,0.58617 21.931375,10.68986 21.931375,23.02555 v 4.88923 c 0,4.83737 1.76226,9.55428 4.88803,13.21153 h -3.7671 z"
         id="path64"
         style="fill:#000000;fill-opacity:1;stroke:#ecf2e6;stroke-width:0.549;stroke-miterlimit:4;stroke-dasharray:none;stroke-opacity:1" />
    </g>
    <text
       xml:space="preserve"
       transform="matrix(0.26458333,0,0,0.26458333,9.9654567,-124.55236)"
       id="text87"
       style="font-style:normal;font-weight:normal;font-size:16px;line-height:125%;font-family:sans-serif;letter-spacing:0px;word-spacing:0px;white-space:pre;shape-inside:url(#rect87);display:inline;fill:#ecf2e6;fill-opacity:1;stroke:none;stroke-width:1px;stroke-linecap:butt;stroke-linejoin:miter;stroke-opacity:1"><tspan
         x="56.734375"
         y="349.558"
         id="tspan3"><tspan
           style="font-family:'Ink Free';-inkscape-font-specification:'Ink Free'"
           id="tspan2">test execution</tspan></tspan></text>
    <text
       xml:space="preserve"
       transform="matrix(0.26458333,0,0,0.26458333,41.715456,-124.55236)"
       id="text88"
       style="font-style:normal;font-weight:normal;font-size:16px;line-height:125%;font-family:sans-serif;letter-spacing:0px;word-spacing:0px;white-space:pre;shape-inside:url(#rect88);display:inline;fill:#ecf2e6;fill-opacity:1;stroke:none;stroke-width:1px;stroke-linecap:butt;stroke-linejoin:miter;stroke-opacity:1"><tspan
         x="56.734375"
         y="349.558"
         id="tspan5"><tspan
           style="font-family:'Ink Free';-inkscape-font-specification:'Ink Free'"
           id="tspan4">test execution</tspan></tspan></text>
    <text
       xml:space="preserve"
       transform="matrix(0.26458333,0,0,0.26458333,84.048795,-124.55236)"
       id="text89"
       style="font-style:normal;font-weight:normal;font-size:16px;line-height:125%;font-family:sans-serif;letter-spacing:0px;word-spacing:0px;white-space:pre;shape-inside:url(#rect89);display:inline;fill:#ecf2e6;fill-opacity:1;stroke:none;stroke-width:1px;stroke-linecap:butt;stroke-linejoin:miter;stroke-opacity:1"><tspan
         x="56.734375"
         y="349.558"
         id="tspan7"><tspan
           style="font-family:'Ink Free';-inkscape-font-specification:'Ink Free'"
           id="tspan6">...</tspan></tspan></text>
    <text
       xml:space="preserve"
       transform="matrix(0.26458333,0,0,0.26458333,133.79047,-124.55236)"
       id="text90"
       style="font-style:normal;font-weight:normal;font-size:16px;line-height:125%;font-family:sans-serif;letter-spacing:0px;word-spacing:0px;white-space:pre;shape-inside:url(#rect92);display:inline;fill:#ecf2e6;fill-opacity:1;stroke:none;stroke-width:1px;stroke-linecap:butt;stroke-linejoin:miter;stroke-opacity:1"><tspan
         x="56.734375"
         y="349.558"
         id="tspan10"><tspan
           style="font-family:'Ink Free';-inkscape-font-specification:'Ink Free'"
           id="tspan8">test suite</tspan></tspan></text>
    <text
       xml:space="preserve"
       transform="matrix(0.26458333,0,0,0.26458333,166.59885,-124.55236)"
       id="text91"
       style="font-style:normal;font-weight:normal;font-size:16px;line-height:125%;font-family:sans-serif;letter-spacing:0px;word-spacing:0px;white-space:pre;shape-inside:url(#rect93);display:inline;fill:#ecf2e6;fill-opacity:1;stroke:none;stroke-width:1px;stroke-linecap:butt;stroke-linejoin:miter;stroke-opacity:1"><tspan
         x="56.734375"
         y="349.558"
         id="tspan14"><tspan
           style="font-family:'Ink Free';-inkscape-font-specification:'Ink Free'"
           id="tspan13">test suite</tspan></tspan></text>
    <text
       xml:space="preserve"
       transform="matrix(0.26458333,0,0,0.26458333,206.28643,-124.55236)"
       id="text92"
       style="font-style:normal;font-weight:normal;font-size:16px;line-height:125%;font-family:sans-serif;letter-spacing:0px;word-spacing:0px;white-space:pre;shape-inside:url(#rect94);display:inline;fill:#ecf2e6;fill-opacity:1;stroke:none;stroke-width:1px;stroke-linecap:butt;stroke-linejoin:miter;stroke-opacity:1"><tspan
         x="56.734375"
         y="349.558"
         id="tspan16"><tspan
           style="font-family:'Ink Free';-inkscape-font-specification:'Ink Free'"
           id="tspan15">...</tspan></tspan></text>
    <text
       xml:space="preserve"
       transform="matrix(0.26458333,0,0,0.26458333,104.68628,-113.96902)"
       id="text94"
       style="font-style:normal;font-weight:normal;font-size:32px;line-height:125%;font-family:sans-serif;letter-spacing:0px;word-spacing:0px;white-space:pre;shape-inside:url(#rect95);display:inline;fill:#131323;fill-opacity:1;stroke:#ecf2e6;stroke-width:0.377953;stroke-linecap:butt;stroke-linejoin:miter;stroke-dasharray:none;stroke-opacity:1"
       x="141.76003"
       y="0"><tspan
         x="56.734375"
         y="364.11601"
         id="tspan18"><tspan
           style="font-family:'Ink Free';-inkscape-font-specification:'Ink Free'"
           id="tspan17">inlets</tspan></tspan></text>
    <text
       xml:space="preserve"
       transform="matrix(0.26458333,0,0,0.26458333,102.04046,-36.18151)"
       id="text95"
       style="font-style:normal;font-weight:normal;font-size:32px;line-height:125%;font-family:sans-serif;letter-spacing:0px;word-spacing:0px;white-space:pre;shape-inside:url(#rect96);display:inline;fill:#131323;fill-opacity:1;stroke:#ecf2e6;stroke-width:0.377953;stroke-linecap:butt;stroke-linejoin:miter;stroke-dasharray:none;stroke-opacity:1"
       x="35.440006"
       y="0"><tspan
         x="56.734375"
         y="364.11601"
         id="tspan23"><tspan
           style="font-family:'Ink Free';-inkscape-font-specification:'Ink Free'"
           id="tspan22">outlets</tspan></tspan></text>
  </g>
</svg>
